<?xml version="1.0" standalone="no"?><!DOCTYPE svg PUBLIC "-//W3C//DTD SVG 1.1//EN" "http://www.w3.org/Graphics/SVG/1.1/DTD/svg11.dtd"><svg t="1533538305466" class="icon" style="" viewBox="0 0 1024 1024" version="1.1" xmlns="http://www.w3.org/2000/svg" p-id="9997" xmlns:xlink="http://www.w3.org/1999/xlink" width="200" height="200"><defs><style type="text/css"></style></defs><path d="M757.76 409.6V353.28c0-15.36-10.24-25.6-25.6-25.6s-25.6 10.24-25.6 25.6V409.6h-56.32c-15.36 0-25.6 10.24-25.6 25.6s10.24 25.6 25.6 25.6h56.32v56.32c0 15.36 10.24 25.6 25.6 25.6s25.6-10.24 25.6-25.6v-51.2h56.32c15.36 0 25.6-10.24 25.6-25.6s-10.24-25.6-25.6-25.6h-56.32z" p-id="9998"></path><path d="M921.6 102.4H102.4C61.44 102.4 25.6 138.24 25.6 189.44v506.88c0 46.08 35.84 81.92 81.92 81.92h552.96l-56.32 97.28-40.96 71.68 76.8-30.72 317.44-128c25.6-10.24 51.2-46.08 51.2-71.68V189.44c-10.24-51.2-46.08-87.04-87.04-87.04z m0 640l-235.52 92.16 66.56-112.64H102.4c-15.36 0-25.6-10.24-25.6-25.6V189.44c0-15.36 10.24-30.72 25.6-30.72h819.2c15.36 0 25.6 10.24 25.6 30.72v517.12c0 10.24-10.24 25.6-25.6 35.84z" p-id="9999"></path><path d="M184.32 440.32a56.32 56.32 0 1 0 112.64 0 56.32 56.32 0 1 0-112.64 0Z" p-id="10000"></path><path d="M399.36 440.32a56.32 56.32 0 1 0 112.64 0 56.32 56.32 0 1 0-112.64 0Z" p-id="10001"></path></svg>