<?xml version="1.0" standalone="no"?><!DOCTYPE svg PUBLIC "-//W3C//DTD SVG 1.1//EN" "http://www.w3.org/Graphics/SVG/1.1/DTD/svg11.dtd"><svg t="1533540792369" class="icon" style="" viewBox="0 0 1024 1024" version="1.1" xmlns="http://www.w3.org/2000/svg" p-id="8324" xmlns:xlink="http://www.w3.org/1999/xlink" width="200" height="200"><defs><style type="text/css"></style></defs><path d="M658.285714 1024v-97.52381h341.333334v97.52381h-341.333334z m0-243.809524h341.333334v97.52381h-341.333334v-97.52381z m0-146.285714h341.333334v97.523809h-341.333334v-97.523809z m-146.285714-48.761905a390.095238 390.095238 0 0 0-390.095238 390.095238c0 16.530286 1.365333 32.768 3.364571 48.761905H26.819048c-1.560381-16.042667-2.438095-32.280381-2.438096-48.761905 0-205.872762 127.804952-381.610667 308.224-453.095619C264.192 468.553143 219.428571 386.194286 219.428571 292.571429a292.571429 292.571429 0 1 1 292.571429 292.571428z m0-487.619047a195.047619 195.047619 0 1 0 0 390.095238 195.047619 195.047619 0 0 0 0-390.095238z m97.52381 633.904761h-97.52381v-97.523809h97.52381v97.523809z m0 146.285715h-97.52381v-97.52381h97.52381v97.52381z m0 146.285714h-97.52381v-97.52381h97.52381v97.52381z" p-id="8325"></path></svg>