<?xml version="1.0" standalone="no"?><!DOCTYPE svg PUBLIC "-//W3C//DTD SVG 1.1//EN" "http://www.w3.org/Graphics/SVG/1.1/DTD/svg11.dtd"><svg t="1533538444825" class="icon" style="" viewBox="0 0 1024 1024" version="1.1" xmlns="http://www.w3.org/2000/svg" p-id="13311" xmlns:xlink="http://www.w3.org/1999/xlink" width="200" height="200"><defs><style type="text/css"></style></defs><path d="M486.976 214.976 537.024 214.976 537.024 177.536 574.464 177.536 574.464 127.616 537.024 127.616 537.024 90.176 486.976 90.176 486.976 127.616 449.536 127.616 449.536 177.536 486.976 177.536Z" p-id="13312"></path><path d="M666.176 561.92c76.416-52.8 127.104-143.488 127.104-246.4L793.28 230.272C793.344 103.296 690.624 0 564.48 0L459.52 0C333.376 0 230.656 103.296 230.656 230.272L230.656 315.52c0 102.912 50.688 193.6 127.104 246.4C158.208 576.256 0 742.272 0 944.768L0 1024l1024 0 0-79.232C1024 742.272 865.792 576.256 666.176 561.92zM459.52 49.92 564.48 49.92c98.624 0 178.88 80.896 178.88 180.288l0 24.96-462.72 0 0-24.96C280.64 130.816 360.896 49.92 459.52 49.92zM280.64 315.52 280.64 305.216l462.72 0L743.36 315.52c0 135.104-103.808 244.992-231.36 244.992S280.64 450.624 280.64 315.52zM974.08 974.08 49.92 974.08l0-29.312c0-184.384 150.592-334.272 335.68-334.272l252.736 0c185.152 0 335.68 149.888 335.68 334.272L974.016 974.08z" p-id="13313"></path></svg>