<?xml version="1.0" standalone="no"?><!DOCTYPE svg PUBLIC "-//W3C//DTD SVG 1.1//EN" "http://www.w3.org/Graphics/SVG/1.1/DTD/svg11.dtd"><svg t="1533538396920" class="icon" style="" viewBox="0 0 1024 1024" version="1.1" xmlns="http://www.w3.org/2000/svg" p-id="12036" xmlns:xlink="http://www.w3.org/1999/xlink" width="200" height="200"><defs><style type="text/css"></style></defs><path d="M728 140c-4 4-8 8-8 16 0 12 12 24 24 24h88v88c0 16 8 24 20 24 16 0 24-8 24-24v-88h96c12 0 24-12 24-24s-12-24-24-24h-96v-92c0-12-6-24-22-24-4 0-10.4 4-14.4 8h-0.8c-4 4-6.8 12-6.8 16v92h-88c-8 0-12 4-16 8z" p-id="12037"></path><path d="M965.2 326c-11.2 4.4-16.8 16.8-12.8 28.4 17.2 49.6 27.2 103.6 27.2 157.6 0 112-40 216-108 296v0.4c-13.2-44-35.6-84.4-67.2-119.2-1.6-1.6-41.6-43.6-89.6-65.2-55.2-24.8-52.4-18-54.4-19.6h-0.4c60-31.6 108-97.2 108-172.8 0-106.4-86.4-192.8-192.8-192.8s-192.8 86.4-192.8 192.8c0 73.6 41.2 137.2 102 170-122 37.6-212 150-217.6 282h-2.8v26.8c-24-16.8-50.4-36-73.2-57.6l-40-40v-1.2c-0.4-0.4-0.8-0.8-0.8-1.2 13.2-112.4 103.2-199.2 212-199.2 10.4 0 18.4-8.4 18.4-18.4 0-10-8-18.4-18-18.4-66.8 0-120.8-58-120.8-129.2 0-71.2 54-128.8 120.4-129.2 9.6 0 18-6.8 19.2-16.4 1.2-11.2-7.2-20.4-18.4-20.4-87.2 0-158 74.8-158 166 0 61.2 31.6 114.4 78 143.2-78.4 27.6-139.2 95.2-161.6 179.2C75.6 692 48 604.8 48 512c0-256 208-464 464-464 48.8 0 94.8 6.8 137.6 19.6 10.4 3.2 21.6-0.8 26.8-10 8-13.2 1.2-30-13.2-34.4-48-14.4-98.8-23.2-151.2-23.2-284 0-512 228-512 512 0 283.2 228.8 512 512 512 284 0 512-228 512-512 0-60-10.4-118-29.2-172.8-4.4-12-17.6-18-29.6-13.2zM420 431.2c0-86 70-156 156-156s156 70 156 156-70 156-156 156-156-70-156-156z m416 419.6c0 0.4-2 0.8-2 1.2-40 36-90 68-138 88l-45.6 16c-44 16-92.4 24-140.4 24-75.6 0-146.4-18-210.4-50V900c0-1.2 2-2.4 2-3.6 0-150 122.8-272 271.6-272.4 2 0.4 3.6 0 5.6-0.4 3.2 0 0.8-0.4 8.8-0.4h1.2c27.2 0.8 79.2 16.8 110 30.8 47.2 21.6 79.6 61.2 81.2 62.8 31.6 36 52.8 79.2 62 125.6-3.6 5.2-6 8.4-6 8.4z" p-id="12038"></path></svg>