<?xml version="1.0" standalone="no"?><!DOCTYPE svg PUBLIC "-//W3C//DTD SVG 1.1//EN" "http://www.w3.org/Graphics/SVG/1.1/DTD/svg11.dtd"><svg t="1533538351273" class="icon" style="" viewBox="0 0 1024 1024" version="1.1" xmlns="http://www.w3.org/2000/svg" p-id="10789" xmlns:xlink="http://www.w3.org/1999/xlink" width="200" height="200"><defs><style type="text/css"></style></defs><path d="M845.913043 0H178.086957C115.756522 0 66.782609 48.973913 66.782609 111.304348v801.391304c0 62.330435 48.973913 111.304348 111.304348 111.304348h667.826086c62.330435 0 111.304348-48.973913 111.304348-111.304348V111.304348c0-62.330435-48.973913-111.304348-111.304348-111.304348zM498.643478 269.356522c-13.356522-13.356522-13.356522-33.391304 0-46.747826 13.356522-13.356522 33.391304-13.356522 46.747826 0l71.234783 71.234782 71.234783-71.234782c13.356522-13.356522 33.391304-13.356522 46.747826 0 13.356522 13.356522 13.356522 33.391304 0 46.747826l-71.234783 71.234782 71.234783 71.234783c13.356522 13.356522 13.356522 33.391304 0 46.747826-13.356522 13.356522-33.391304 13.356522-46.747826 0l-71.234783-71.234783-71.234783 71.234783c-13.356522 13.356522-33.391304 13.356522-46.747826 0-13.356522-13.356522-13.356522-33.391304 0-46.747826l71.234783-71.234783-71.234783-71.234782zM178.086957 333.913043V133.565217h144.695652C378.434783 133.565217 422.956522 178.086957 422.956522 233.73913c0 48.973913-37.843478 91.269565-84.591305 97.947827l75.686957 75.686956c13.356522 13.356522 13.356522 33.391304 0 46.747826-13.356522 13.356522-35.617391 13.356522-48.973913 0L247.095652 333.913043v100.173914c-2.226087 17.808696-17.808696 33.391304-35.617391 33.391304S178.086957 451.895652 178.086957 434.086957V333.913043z m634.434782 534.26087h-601.043478c-17.808696 0-33.391304-15.582609-33.391304-33.391304S193.669565 801.391304 211.478261 801.391304h601.043478c17.808696 0 33.391304 15.582609 33.391304 33.391305s-15.582609 33.391304-33.391304 33.391304z m0-155.826087h-601.043478c-17.808696 0-33.391304-15.582609-33.391304-33.391304S193.669565 645.565217 211.478261 645.565217h601.043478c17.808696 0 33.391304 15.582609 33.391304 33.391305s-15.582609 33.391304-33.391304 33.391304z" p-id="10790"></path><path d="M356.173913 233.73913c0-17.808696-15.582609-33.391304-33.391304-33.391304H244.869565v66.782609h77.913044c17.808696 0 33.391304-15.582609 33.391304-33.391305z" p-id="10791"></path></svg>