<?xml version="1.0" standalone="no"?><!DOCTYPE svg PUBLIC "-//W3C//DTD SVG 1.1//EN" "http://www.w3.org/Graphics/SVG/1.1/DTD/svg11.dtd"><svg t="1533538337501" class="icon" style="" viewBox="0 0 1809 1024" version="1.1" xmlns="http://www.w3.org/2000/svg" p-id="10564" xmlns:xlink="http://www.w3.org/1999/xlink" width="353.3203125" height="200"><defs><style type="text/css"></style></defs><path d="M1524.78084 451.874451L1097.541751 24.804969c-33.073292-33.073292-86.838592-33.073292-119.911884 0L800.221337 202.213499 622.6432 24.804969c-33.073292-33.073292-86.838592-33.073292-119.911884 0l-427.239089 427.239089c-33.073292 33.073292-33.073292 86.838592 0 119.911884l427.239089 427.239089c33.073292 33.073292 86.838592 33.073292 119.911884 0l177.40853-177.40853 177.40853 177.40853c33.073292 33.073292 86.838592 33.073292 119.911884 0L1524.611233 571.955942c33.242899-33.242899 33.242899-86.838592 0.169607-120.081491zM622.6432 879.11354c-33.073292 33.073292-86.838592 33.073292-119.911884 0L195.404111 571.786335c-33.073292-33.073292-33.073292-86.838592 0-119.911884L502.731316 144.716853c33.073292-33.073292 86.838592-33.073292 119.911884 0l117.537391 117.537391-189.789813 189.620207c-33.073292 33.073292-33.073292 86.838592 0 119.911884l189.789813 189.789814-117.537391 117.537391z m177.578137-556.988157l129.749068 129.749068c33.073292 33.073292 33.073292 86.838592 0 119.911884l-129.749068 129.749069-129.749069-129.749069c-33.073292-33.073292-33.073292-86.838592 0-119.911884l129.749069-129.749068z m604.647619 249.660952L1097.541751 879.11354c-33.073292 33.073292-86.838592 33.073292-119.911884 0l-117.537392-117.537391 189.789814-189.789814c33.073292-33.073292 33.073292-86.838592 0-119.911884L860.092475 262.254244l117.537392-117.537391c33.073292-33.073292 86.838592-33.073292 119.911884 0l307.327205 307.327205c33.073292 33.073292 33.073292 86.668986 0 119.742277z" p-id="10565"></path></svg>