<?xml version="1.0" standalone="no"?><!DOCTYPE svg PUBLIC "-//W3C//DTD SVG 1.1//EN" "http://www.w3.org/Graphics/SVG/1.1/DTD/svg11.dtd"><svg t="1533538451198" class="icon" style="" viewBox="0 0 1024 1024" version="1.1" xmlns="http://www.w3.org/2000/svg" p-id="13429" xmlns:xlink="http://www.w3.org/1999/xlink" width="200" height="200"><defs><style type="text/css"></style></defs><path d="M914.453 657.05c0 0-28.248-37.77-65.189-74.716-35.355-35.353-79.479-69.957-79.479-69.957-50.846-50.843-133.283-50.843-184.127 0 0 0-45.166 35.639-81.068 71.544-36.432 36.438-63.603 73.129-63.603 73.129-50.845 50.85-50.845 133.283 0 184.134 0 0 37.77 47.3 74.716 84.238 35.355 35.358 69.957 60.438 69.957 60.438 50.844 50.846 133.281 50.846 184.127 0 0 0 34.598-25.072 69.949-60.438 36.945-36.937 74.721-84.238 74.721-84.238C965.293 790.336 965.293 707.9 914.453 657.05zM851.994 776.751c0 10.522-7.813 18.328-18.336 18.328L723.656 795.079l0 100.782c0 10.521-7.814 27.485-18.334 27.485l-55.004 0c-10.521 0-18.334-7.805-18.334-18.32L631.984 795.078 521.98 795.078c-10.524 0-18.337-7.802-18.337-18.324l0-54.975c0-10.521 7.813-18.324 18.337-18.324l110.004 0L631.984 593.509c0-10.521 7.813-18.325 18.336-18.325l55.002 0c10.52 0 18.336 7.808 18.336 18.325l0 109.946L833.66 703.455c10.521 0 18.334 7.805 18.334 18.324l0.002 0L851.994 776.751z" p-id="13430"></path><path d="M467.912 978.901 111.943 978.901c-36.982 0-67.168-30.188-67.168-67.162L44.775 169.92c0-37.185 30.188-67.168 67.168-67.168l81.954 0c12.396 0 22.393-9.995 22.393-22.386 0-12.398-9.996-22.392-22.393-22.392l-81.955 0C50.175 57.974 0 108.149 0 169.92l0 741.62c0 61.768 50.175 111.937 111.943 111.937l401.545 0C497.095 1009.889 481.905 995.099 467.912 978.901z" p-id="13431"></path><path d="M688.051 102.752l81.156 0c36.98 0 67.166 30.185 67.166 67.169l0 281.398c15.594 7.599 30.586 30.646 44.777 40.246L881.15 169.92c0-61.77-50.176-111.945-111.943-111.945l-81.156 0c-12.393 0-22.389 9.994-22.389 22.392C665.662 92.755 675.656 102.752 688.051 102.752z" p-id="13432"></path><path d="M170.515 239.084c0 27.789 22.386 50.176 50.177 50.176l439.772 0c27.586 0 50.176-22.387 50.176-50.176-0.004-27.784-22.395-50.175-50.176-50.175l-85.957 0L574.507 79.964c0-44.175-35.783-79.959-79.961-79.959L386.601 0.005c-44.182 0-79.958 35.784-79.958 79.959l0 108.941-85.956 0C192.899 188.906 170.515 211.298 170.515 239.084zM440.576 44.983c29.182 0 52.97 23.786 52.97 52.973-0.001 29.19-23.788 52.977-52.97 52.977-29.188 0-52.979-23.786-52.979-52.977C387.598 68.771 411.392 44.983 440.576 44.983z" p-id="13433"></path><path d="M170.515 441.18c0 27.785 22.386 50.18 50.177 50.18l267.789 0c48.375-49.18 93.478-84.562 163.041-100.353L220.689 391.007C192.899 391.004 170.515 413.393 170.515 441.18z" p-id="13434"></path></svg>