<?xml version="1.0" standalone="no"?><!DOCTYPE svg PUBLIC "-//W3C//DTD SVG 1.1//EN" "http://www.w3.org/Graphics/SVG/1.1/DTD/svg11.dtd"><svg t="1533538422063" class="icon" style="" viewBox="0 0 1024 1024" version="1.1" xmlns="http://www.w3.org/2000/svg" p-id="12609" xmlns:xlink="http://www.w3.org/1999/xlink" width="200" height="200"><defs><style type="text/css"></style></defs><path d="M45.44 516.23424c0-114.31424-0.17408-228.6336 0.0512-342.95296C45.69088 74.22464 103.64928 14.848 202.20928 14.58688c209.01376-0.57344 418.03264-0.51712 627.05152-0.03584 97.4336 0.22528 157.30688 61.12256 157.47584 158.82752 0.2304 134.79424 0.1024 269.58336-0.0512 404.3776-0.01024 8.42752 1.41312 19.24608-3.03616 24.7296-7.24992 8.9344-19.71712 20.85888-28.28288 19.6352-10.29632-1.47456-20.30592-14.32576-27.47904-24.36096-3.68128-5.15584-1.0496-14.90944-1.0496-22.5792-0.0256-133.94432 0.0256-267.88352-0.04096-401.82272-0.03072-65.8432-34.80576-100.60288-101.26848-100.64896-207.3088-0.13824-414.6176-0.15872-621.93152 0.01536-63.8208 0.05632-98.432 34.5344-98.4576 97.7664-0.11264 231.1936-0.11264 462.39744 0 693.59104 0.03072 65.21344 34.0224 98.7648 99.69152 98.8416 86.16448 0.09728 172.32896-0.03584 258.49856 0.06144 27.74528 0.03584 42.35264 10.61376 42.02496 29.85984-0.32256 18.7136-15.60576 29.56288-42.96192 29.60896-87.87456 0.14336-175.74912 0.5376-263.61856-0.08704-90.89024-0.64512-152.29952-61.55264-153.01632-152.9344-0.92672-117.72416-0.22528-235.45856-0.22528-353.19296C45.49632 516.23424 45.47072 516.23424 45.44 516.23424z" p-id="12610"></path><path d="M721.24416 948.99712c-4.72064 6.8352-8.90368 12.89728-14.85824 21.51424 13.53216 0 24.03328 0 37.56544 0-5.92384-7.6544-10.77248-13.91616-17.03424-22.016 12.52864-13.09184 25.28768-26.5216 38.15424-39.84896 54.52288-56.4736 108.9536-113.0496 163.712-169.30816 18.0224-18.51904 35.65568-20.60288 48.68096-5.84704 15.2576 17.29536 8.25856 32.6912-5.70368 47.11936-73.00608 75.40736-145.792 151.02976-218.92096 226.31424-19.09248 19.65568-32.04096 20.0704-52.93568 2.10432-26.52672-22.80448-52.38272-46.37696-78.7456-69.38112-15.7696-13.76256-21.9136-29.67552-6.49728-46.33088 14.336-15.47776 30.96576-11.16672 45.48608 1.36704C680.78592 912.50176 700.93312 930.88768 721.24416 948.99712z" p-id="12611"></path><path d="M515.95264 305.70496c-62.99136 0-125.9776 0.14336-188.96896-0.06656-27.92448-0.09216-41.84576-10.60864-40.39168-30.91456 1.77664-24.83712 19.1232-28.72832 39.8848-28.69248 125.9776 0.2304 251.9552 0.06144 377.93792 0.1536 27.09504 0.02048 43.14112 11.43808 41.02656 30.50496-2.61632 23.5776-19.52256 29.2096-40.51456 29.11744C641.93536 305.52064 578.944 305.70496 515.95264 305.70496z" p-id="12612"></path><path d="M514.27328 543.67744c-63.10912-0.00512-126.21824 0.16384-189.32736-0.08704-26.7776-0.10752-39.51104-10.0352-38.43072-29.78816 1.29536-23.70048 17.536-28.40064 37.48352-28.38528 127.9232 0.1024 255.85152 0.17408 383.7696-0.08704 20.608-0.04096 35.73248 6.55872 37.78048 28.83072 1.67936 18.28352-13.56288 29.34272-39.38816 29.44C642.2016 543.83616 578.24256 543.67744 514.27328 543.67744z" p-id="12613"></path><path d="M394.20416 782.9504c-24.64768-0.00512-49.29536 0-73.94816-0.00512-19.82464-0.00512-33.39776-8.17152-33.57696-29.47584-0.1792-21.70368 14.5408-29.63456 33.61792-29.824 50.14016-0.50176 100.29568-0.41472 150.44096-0.0512 19.49184 0.13824 34.15552 9.56416 34.03776 29.9776-0.11776 20.1728-13.9008 29.57312-34.07872 29.42464C445.20448 782.81216 419.70176 782.95552 394.20416 782.9504z" p-id="12614"></path></svg>