<?xml version="1.0" standalone="no"?><!DOCTYPE svg PUBLIC "-//W3C//DTD SVG 1.1//EN" "http://www.w3.org/Graphics/SVG/1.1/DTD/svg11.dtd"><svg t="1533540680194" class="icon" style="" viewBox="0 0 1024 1024" version="1.1" xmlns="http://www.w3.org/2000/svg" p-id="8305" xmlns:xlink="http://www.w3.org/1999/xlink" width="200" height="200"><defs><style type="text/css"></style></defs><path d="M277.538133 459.707733a256 256 0 1 1 383.5904 0c26.077867 14.677333 50.346667 32.256 72.328534 52.292267h145.476266a68.266667 68.266667 0 0 1 68.266667 68.266667v341.333333a68.266667 68.266667 0 0 1-68.266667 68.266667h-214.698666c-56.046933 4.437333-122.811733 6.929067-194.901334 6.826666-196.266667-0.3072-355.703467-27.648-362.018133-42.9056a393.693867 393.693867 0 0 1-30.5152-150.6304c0-147.524267 80.964267-276.0704 200.738133-343.4496z m56.456534 47.786667A325.393067 325.393067 0 0 0 145.066667 803.157333c0 33.3824 5.4272 66.56 15.837866 98.781867 16.384 3.754667 38.877867 7.68 65.297067 11.264 69.393067 9.352533 155.648 15.086933 243.234133 15.223467a2725.000533 2725.000533 0 0 0 102.468267-1.706667c-0.1024-1.706667-0.170667-3.413333-0.170667-5.12V580.266667a68.266667 68.266667 0 0 1 48.2304-65.262934 321.911467 321.911467 0 0 0-15.2576-7.543466A254.805333 254.805333 0 0 1 469.333333 546.133333a254.805333 254.805333 0 0 1-135.338666-38.673066zM640 580.266667v341.333333h238.933333V580.266667h-238.933333z m-170.666667-102.4a187.733333 187.733333 0 1 0 0-375.466667 187.733333 187.733333 0 0 0 0 375.466667z m238.933334 307.2h102.4a34.133333 34.133333 0 0 1 0 68.266666h-102.4a34.133333 34.133333 0 0 1 0-68.266666z m0-136.533334h102.4a34.133333 34.133333 0 0 1 0 68.266667h-102.4a34.133333 34.133333 0 0 1 0-68.266667z" p-id="8306"></path></svg>