<?xml version="1.0" standalone="no"?><!DOCTYPE svg PUBLIC "-//W3C//DTD SVG 1.1//EN" "http://www.w3.org/Graphics/SVG/1.1/DTD/svg11.dtd"><svg t="1533538389067" class="icon" style="" viewBox="0 0 1024 1024" version="1.1" xmlns="http://www.w3.org/2000/svg" p-id="11811" xmlns:xlink="http://www.w3.org/1999/xlink" width="200" height="200"><defs><style type="text/css"></style></defs><path d="M769.706667 735.573333c-22.186667 0-40.96 18.773333-40.96 40.96 0 22.186667 18.773333 40.96 40.96 40.96 22.186667 0 40.96-18.773333 40.96-40.96 0-22.186667-18.773333-40.96-40.96-40.96" p-id="11812"></path><path d="M892.586667 262.826667H129.706667v-59.733334c0-42.666667 29.013333-76.8 63.146666-76.8h95.573334c11.946667 27.306667 39.253333 46.08 71.68 46.08h300.373333c32.426667 0 59.733333-18.773333 71.68-46.08h98.986667c32.426667 0 59.733333 35.84 59.733333 76.8l1.706667 59.733334z m-10.24 201.386666l-110.933334 110.933334c-10.24 10.24-25.6 10.24-34.133333 0L657.066667 494.933333c-10.24-10.24-10.24-25.6 0-34.133333 8.533333-8.533333 20.48-8.533333 30.72-3.413333 1.706667 1.706667 3.413333 1.706667 5.12 3.413333l61.44 61.44 90.453333-90.453333h1.706667l1.706666-1.706667c10.24-10.24 25.6-10.24 34.133334 0s8.533333 25.6 0 34.133333z m-112.64 413.013334c-54.613333 0-98.986667-44.373333-98.986667-98.986667s44.373333-98.986667 98.986667-98.986667 98.986667 44.373333 98.986666 98.986667-44.373333 98.986667-98.986666 98.986667z m-221.866667-349.866667c0 13.653333-10.24 25.6-23.893333 25.6h-324.266667c-13.653333 0-23.893333-11.946667-23.893333-25.6v-1.706667c0-13.653333 10.24-25.6 23.893333-25.6h324.266667c13.653333-1.706667 23.893333 10.24 23.893333 27.306667z m0 250.88c0 13.653333-10.24 25.6-23.893333 25.6h-324.266667c-13.653333 0-23.893333-11.946667-23.893333-25.6v-1.706667c0-13.653333 10.24-25.6 23.893333-25.6h324.266667c13.653333 0 23.893333 11.946667 23.893333 27.306667zM836.266667 49.493333h-102.4C721.92 22.186667 694.613333 1.706667 662.186667 1.706667H361.813333c-32.426667 0-59.733333 18.773333-71.68 47.786666h-95.573333c-76.8 0-138.24 68.266667-138.24 153.6v665.6c0 83.626667 63.146667 151.893333 138.24 151.893334h636.586667c76.8 0 138.24-68.266667 138.24-151.893334v-665.6c1.706667-81.92-58.026667-151.893333-133.12-153.6z" p-id="11813"></path></svg>