<?xml version="1.0" standalone="no"?><!DOCTYPE svg PUBLIC "-//W3C//DTD SVG 1.1//EN" "http://www.w3.org/Graphics/SVG/1.1/DTD/svg11.dtd"><svg t="1533538400741" class="icon" style="" viewBox="0 0 1024 1024" version="1.1" xmlns="http://www.w3.org/2000/svg" p-id="12149" xmlns:xlink="http://www.w3.org/1999/xlink" width="200" height="200"><defs><style type="text/css"></style></defs><path d="M924.8 416h-112V112c0-19.2-12.8-32-32-32h-640c-19.2 0-32 12.8-32 32v800c0 19.2 12.8 32 32 32h640c89.6 0 160-70.4 160-160v-352c0-9.6-6.4-16-16-16z m-144 496h-640v-800h640v800z m128-384v256c0 60.8-41.6 108.8-96 124.8V448h96v80z" p-id="12150"></path><path d="M460.8 304h192c9.6 0 16-6.4 16-16s-6.4-16-16-16h-192c-9.6 0-16 6.4-16 16s6.4 16 16 16zM252.8 464h400c9.6 0 16-6.4 16-16s-6.4-16-16-16H252.8c-9.6 0-16 6.4-16 16s6.4 16 16 16zM252.8 624h400c9.6 0 16-6.4 16-16s-6.4-16-16-16H252.8c-9.6 0-16 6.4-16 16s6.4 16 16 16zM252.8 784h288c9.6 0 16-6.4 16-16s-6.4-16-16-16h-288c-9.6 0-16 6.4-16 16s6.4 16 16 16zM256 336h105.6c9.6 0 19.2-9.6 19.2-19.2V211.2c0-9.6-9.6-19.2-19.2-19.2H256c-9.6 0-19.2 9.6-19.2 19.2v105.6c0 9.6 9.6 19.2 19.2 19.2z" p-id="12151"></path></svg>