<?xml version="1.0" standalone="no"?><!DOCTYPE svg PUBLIC "-//W3C//DTD SVG 1.1//EN" "http://www.w3.org/Graphics/SVG/1.1/DTD/svg11.dtd"><svg t="1533540985746" class="icon" style="" viewBox="0 0 1024 1024" version="1.1" xmlns="http://www.w3.org/2000/svg" p-id="8556" xmlns:xlink="http://www.w3.org/1999/xlink" width="200" height="200"><defs><style type="text/css"></style></defs><path d="M1024 752.64v61.44l-66.56 20.48c-5.12 10.24-5.12 20.48-15.36 30.72l30.72 66.56-40.96 40.96-66.56-30.72-30.72 15.36-20.48 66.56h-61.44l-25.6-66.56-30.72-15.36-61.44 30.72-40.96-40.96 30.72-66.56-15.36-30.72-66.56-20.48v-61.44l66.56-20.48c5.12-10.24 5.12-20.48 15.36-30.72l-30.72-66.56 40.96-40.96 66.56 30.72 30.72-15.36 25.6-66.56H819.2l25.6 66.56 30.72 15.36 66.56-30.72 40.96 40.96-30.72 66.56 15.36 30.72 56.32 20.48z m-240.64-61.44c-51.2 0-92.16 40.96-92.16 92.16s40.96 92.16 92.16 92.16 92.16-40.96 92.16-92.16-40.96-92.16-92.16-92.16z m-30.72-215.04h-40.96l-15.36 40.96-10.24 25.6-25.6-15.36-35.84-15.36-30.72 30.72-40.96 40.96-30.72 30.72 20.48 40.96 15.36 25.6-25.6 10.24-40.96 15.36v138.24H122.88c-66.56 0-122.88-56.32-122.88-122.88V302.08c0-66.56 56.32-122.88 122.88-122.88h220.16L174.08 87.04C153.6 71.68 148.48 46.08 158.72 20.48c15.36-20.48 40.96-25.6 61.44-15.36l199.68 117.76L619.52 5.12c20.48-10.24 51.2-5.12 61.44 15.36 10.24 20.48 5.12 51.2-15.36 61.44L501.76 179.2h220.16c66.56 0 122.88 56.32 122.88 122.88v174.08h-92.16zM332.8 358.4v302.08l271.36-153.6L332.8 358.4z m0 0" p-id="8557"></path></svg>