<?xml version="1.0" standalone="no"?><!DOCTYPE svg PUBLIC "-//W3C//DTD SVG 1.1//EN" "http://www.w3.org/Graphics/SVG/1.1/DTD/svg11.dtd"><svg t="1533538410492" class="icon" style="" viewBox="0 0 1024 1024" version="1.1" xmlns="http://www.w3.org/2000/svg" p-id="12376" xmlns:xlink="http://www.w3.org/1999/xlink" width="200" height="200"><defs><style type="text/css"></style></defs><path d="M847.12715 121.018182l-111.709091 0L735.418059 83.781818c0-20.557576-16.678788-37.236364-37.236364-37.236364-20.557576 0-37.236364 16.678788-37.236364 37.236364l0 37.236364L363.054423 121.018182 363.054423 83.781818c0-20.557576-16.678788-37.236364-37.236364-37.236364-20.557576 0-37.236364 16.678788-37.236364 37.236364l0 37.236364L176.872604 121.018182C115.199877 121.018182 65.163514 171.054545 65.163514 232.727273l0 633.018182c0 61.672727 50.036364 111.709091 111.709091 111.709091l670.254545 0c61.672727 0 111.709091-50.036364 111.709091-111.709091L958.836241 232.727273C958.965534 171.054545 908.92917 121.018182 847.12715 121.018182L847.12715 121.018182zM901.688766 841.179798c0 41.115152-33.357576 74.472727-74.472727 74.472727L196.52513 915.652525C155.409978 915.781818 122.052402 882.294949 122.052402 841.179798L122.052402 254.707071c0-41.115152 33.357576-74.472727 74.472727-74.472727l92.056566 0L288.581695 254.707071c0 20.557576 16.678788 37.236364 37.236364 37.236364 20.557576 0 37.236364-16.678788 37.236364-37.236364l0-74.472727 297.890909 0L660.945332 254.707071c0 20.557576 16.678788 37.236364 37.236364 37.236364 20.557576 0 37.236364-16.678788 37.236364-37.236364l0-74.472727 91.79798 0c41.115152 0 74.472727 33.357576 74.472727 74.472727L901.688766 841.179798 901.688766 841.179798 901.688766 841.179798z" p-id="12377"></path><path d="M675.42614 401.19596l-210.618182 210.747475L385.809978 532.816162c-14.610101-14.480808-38.141414-14.480808-52.622222 0-14.610101 14.480808-14.610101 38.141414 0 52.751515l105.373737 105.373737c14.480808 14.480808 38.141414 14.480808 52.622222 0l236.993939-236.993939c14.610101-14.610101 14.610101-38.141414 0-52.751515C713.567554 386.715152 690.036241 386.715152 675.42614 401.19596L675.42614 401.19596z" p-id="12378"></path></svg>