<?xml version="1.0" standalone="no"?><!DOCTYPE svg PUBLIC "-//W3C//DTD SVG 1.1//EN" "http://www.w3.org/Graphics/SVG/1.1/DTD/svg11.dtd"><svg t="1533538381256" class="icon" style="" viewBox="0 0 1024 1024" version="1.1" xmlns="http://www.w3.org/2000/svg" p-id="11583" xmlns:xlink="http://www.w3.org/1999/xlink" width="200" height="200"><defs><style type="text/css"></style></defs><path d="M268.8 217.9h401.1V265H268.8v-47.1M268.8 388.5h401.1v47.2H268.8v-47.2M268.8 557.7h229.3v47.1H268.8v-47.1M981.3 722.4C946.4 664.1 947 663 947 663s-120.6 33.8-143.1-81.8H734S714.7 697 591.5 662.7c-35.6 59.4-36.8 61.2-36.9 61.3 0.1 0 96.5 67.4 0 158.9l37.4 61.5s106.5-45.9 141.4 79.6h70.7s22.2-115.3 141.9-81.2c34.1-58.2 34.7-58.8 34.7-58.8s-90.3-78 0.6-161.6zM767.4 929.1c-69.8 0-126.5-56.6-126.5-126.5s56.6-126.5 126.5-126.5S894 732.7 894 802.6s-56.7 126.5-126.6 126.5z" p-id="11584"></path><path d="M165.9 973.8c-37.8 0-68.4-30.6-68.4-68.4V121.9c0-37.8 30.6-68.4 68.4-68.4H776c37.8 0 68.4 30.6 68.4 68.4v411.4H896v-448C896 38.2 857.8 0 810.7 0H128C80.9 0 42.7 38.2 42.7 85.3v853.3c0 47.1 38.2 85.3 85.3 85.3h392.5v-50.2H195.9" p-id="11585"></path></svg>