<?xml version="1.0" standalone="no"?><!DOCTYPE svg PUBLIC "-//W3C//DTD SVG 1.1//EN" "http://www.w3.org/Graphics/SVG/1.1/DTD/svg11.dtd"><svg t="1533541104973" class="icon" style="" viewBox="0 0 1024 1024" version="1.1" xmlns="http://www.w3.org/2000/svg" p-id="8342" xmlns:xlink="http://www.w3.org/1999/xlink" width="200" height="200"><defs><style type="text/css"></style></defs><path d="M905.6 790.8c-3.6 36-14.8 89.2-70 181.6H608c-24.8-41.6-106.4-161.2-228.4-177.6-18.4-2.4-44-14.8-44-24 0-10 17.2-20 25.2-22.8 0.4 0 40-14 74.4-14 16 0 56.8 16.4 78 29.2l39.2 24.4 0.4-417.6c0-16.4 11.2-29.6 24.8-29.6h4.4c13.6 0 24.8 13.2 24.8 29.6v243.6h51.6v-312.4c0-16.4 11.2-29.6 24.8-29.6h4.4c13.6 0 24.8 13.2 24.8 29.6v312.4h51.6v-211.6c0-16.4 11.2-29.6 24.8-29.6h4.4c13.6 0 24.8 13.2 24.8 29.6v211.6h51.6v-142c0-14.8 8.8-26 16.4-26h3.6c7.6 0 16.4 11.2 16.4 26l-0.4 319.2m52-319.2c0-42.8-30.4-77.2-68-77.2h-3.6c-5.6 0-11.2 0.8-16.4 2.4-2.4-42.4-35.6-76-76.4-76h-4.4c-8.8 0-17.2 1.6-24.8 4.4v-23.6c0-44.8-34.4-81.2-76.4-81.2h-4.4c-39.6 0-72.4 32.4-76 73.2-8-2.8-16.4-4.4-25.2-4.4h-4.4c-42 0-76.4 36.4-76.4 81.2v330c-22-9.2-47.2-17.6-65.6-17.6-43.6 0-90 16.4-92 17.2-22 7.6-59.6 31.6-59.6 71.2 0 51.6 64 71.6 88.8 74.8 118.4 16 204.8 178 204.8 178h287.2s85.2-162.4 92-225.6c1.2-4.4 0.8-326.8 0.8-326.8m-412.4-388.8c1.6 0 2.8 0 4.4-0.4v-82c-1.6-0.4-3.6-0.4-5.2-0.4h-241.2c-1.2 0-2.8 0-4 0.4v82.4c1.2 0 2.8 0.4 4 0.4h242v-0.4z m56.8 178.8c1.2 0 2 0 3.2-0.4v-48c-1.2 0-2-0.4-3.2-0.4h-356.8c-1.6 0-2.8 0-4.4 0.4v47.6c1.6 0.4 2.8 0.4 4.4 0.4h356.8v0.4z m82.8-190.8c28.4 0 47.6 19.2 47.6 47.6v91.6h47.2l0.4-90.4c0-54.4-33.2-96-95.2-96h-51.2v47.2c1.2 0.4 2.4 0.4 3.6 0.4h47.6v-0.4z m-202.4 322.4v-48.4h-237.2c-1.6 0-2.8 0-4.4 0.4v47.6c1.6 0.4 2.8 0.4 4.4 0.4h237.2z m-368.4 272V118.4c0-28.4 19.2-47.6 47.6-47.6h61.2v-47.2h-61.2c-66.8 0-94.8 41.6-94.8 96V660c0 58.8 35.2 100 100 100h75.2v-47.6h-68c-28.8 0-60-19.2-60-47.2z m366-178h-234.8c-1.6 0-2.8 0-4.4 0.4v47.6c1.6 0.4 2.8 0.4 4.4 0.4h236l-1.2-48.4z" p-id="8343"></path></svg>