<?xml version="1.0" standalone="no"?><!DOCTYPE svg PUBLIC "-//W3C//DTD SVG 1.1//EN" "http://www.w3.org/Graphics/SVG/1.1/DTD/svg11.dtd"><svg t="1533538385837" class="icon" style="" viewBox="0 0 1024 1024" version="1.1" xmlns="http://www.w3.org/2000/svg" p-id="11696" xmlns:xlink="http://www.w3.org/1999/xlink" width="200" height="200"><defs><style type="text/css"></style></defs><path d="M751.2 299.5c0-107.1-65.4-181.1-181.1-181.1H298.4c-115.7 0-181.1 69.7-181.1 181.1v271.7c0 107.2 71.1 181.2 181.1 181.2h96.2v52.8H275.7c-116.7 0-211.3-94.6-211.3-211.3v-317c0-116.7 94.6-211.3 211.3-211.3h317c116.7 0 211.3 94.6 211.3 211.3v118.9h-52.8v-96.3z" p-id="11697"></path><path d="M684.6 411.4c-151.8 0-274.9 122.7-274.9 274s123.1 274 274.9 274 274.9-122.7 274.9-274c-0.1-151.4-123.1-274-274.9-274z m-0.6 513.5c-133.1 0-241-107.9-241-241s107.9-241 241-241 241 107.9 241 241-107.9 241-241 241z" p-id="11698"></path><path d="M555.9 668.9h116.7V552.7h24.6v116.1h116.1v20.9H697.1v128.1h-24.6v-128H555.9v-20.9z" p-id="11699"></path><path d="M697.1 828.8h-24.6c-6 0-10.9-4.9-10.9-10.9V700.7H555.9c-6 0-10.9-4.9-10.9-10.9v-20.9c0-6 4.9-10.9 10.9-10.9h105.7V552.7c0-6 4.9-10.9 10.9-10.9h24.6c6 0 10.9 4.9 10.9 10.9v105.2h105.2c6 0 10.9 4.9 10.9 10.9v20.9c0 6-4.9 10.9-10.9 10.9H708v117.2c0 6.1-4.9 11-10.9 11zM683.4 807h2.8V689.8c0-4.9 3.3-9.1 7.8-10.5-4.5-1.3-7.8-5.5-7.8-10.5V563.6h-2.8v105.2c0 4.9-3.3 9.1-7.8 10.5 4.5 1.3 7.8 5.5 7.8 10.5V807z" p-id="11700"></path></svg>