<?xml version="1.0" standalone="no"?><!DOCTYPE svg PUBLIC "-//W3C//DTD SVG 1.1//EN" "http://www.w3.org/Graphics/SVG/1.1/DTD/svg11.dtd"><svg t="1533538426113" class="icon" style="" viewBox="0 0 1024 1024" version="1.1" xmlns="http://www.w3.org/2000/svg" p-id="12725" xmlns:xlink="http://www.w3.org/1999/xlink" width="200" height="200"><defs><style type="text/css"></style></defs><path d="M707.676 932.9112 707.676 624.0112c0-17.1-13.8-30.9-30.9-30.9-17.1 0-30.9 13.8-30.9 30.9l0 308.8L275.276 932.8112 275.276 824.8112l-15.4 0c-42.6 0-77.2-34.6-77.2-77.2l0-139L182.676 516.0112l0-15.4 1.5 0c7.2-35.2 38.3-61.8 75.7-61.8l272.4 0L301.376 820.0112c0 0 307.8 41.1 337.5-381.2l84.2 0c42.6 0 77.2 34.6 77.2 77.2l0 416.9L707.676 932.9112zM321.676 685.8112l0-92.6-46.3 0 0 92.6L321.676 685.8112zM488.876 405.3112c-67.5 0-122.2-54.7-122.2-122.2 0-67.5 54.7-122.2 122.2-122.2 67.5 0 122.3 54.7 122.3 122.2C611.176 350.6112 556.376 405.3112 488.876 405.3112z" p-id="12726"></path><path d="M922.0096 74.9056c-0.4096-14.0288-7.3728-26.4192-17.8176-34.3552-7.7312-5.7856-17.408-9.3184-27.8016-9.3184-44.9024 0-77.824 0.512-122.6752-0.1536-22.6816-0.3584-45.4656 17.4592-45.6704 44.9024l0 1.4336c0 29.1328 0 183.6032 0 183.6032 0 2.816 3.4304 4.1984 5.4272 2.304 8.8064-8.8064 26.1632-26.0608 35.7888-35.584l0.9216-0.9216c1.0752-1.0752 2.9184-1.792 4.4544-1.792 19.9168-0.0512 39.8848-0.1536 59.8528-0.1536 19.456 0 28.9792 2.56 47.9232-2.9184 16.4864-4.8128 31.3856-15.4624 41.8816-28.928 4.8128-6.144 8.8576-13.0048 11.9808-20.48C922.9312 156.3136 922.5216 91.648 922.0096 74.9056zM870.5024 146.8416l-38.8096 0 0 38.9632-33.0752 0 0-38.4512L759.808 147.3536l0-33.1776 38.2976 0 0-38.9632 33.4336 0 0 38.7584 38.9632 0L870.5024 146.8416z" p-id="12727"></path></svg>