<?xml version="1.0" standalone="no"?><!DOCTYPE svg PUBLIC "-//W3C//DTD SVG 1.1//EN" "http://www.w3.org/Graphics/SVG/1.1/DTD/svg11.dtd"><svg t="1533538455238" class="icon" style="" viewBox="0 0 1024 1024" version="1.1" xmlns="http://www.w3.org/2000/svg" p-id="13545" xmlns:xlink="http://www.w3.org/1999/xlink" width="200" height="200"><defs><style type="text/css"></style></defs><path d="M872.245226 213.82597 151.718959 213.82597c-49.187259 0-89.160669 40.099277-89.160669 89.39296l0 412.891771c0 49.169863 39.97341 89.179089 89.160669 89.179089l720.526267 0c49.187259 0 89.196485-40.010249 89.196485-89.179089L961.441711 303.219953C961.441711 253.925247 921.432485 213.82597 872.245226 213.82597M151.718959 268.893146l720.526267 0c18.822694 0 34.130332 15.397688 34.130332 34.326806l0 28.322046L117.624443 331.541999l0-28.322046C117.624443 284.290835 132.896264 268.893146 151.718959 268.893146M872.245226 750.22466 151.718959 750.22466c-18.822694 0-34.093493-15.308661-34.093493-34.112935L117.625466 493.65826l788.750091 0 0 222.453465C906.374534 734.915999 891.066897 750.22466 872.245226 750.22466" p-id="13546"></path><path d="M645.723096 722.942293l198.433398 0 25.489534-161.220868L671.21263 561.721425 645.723096 722.942293zM797.120224 667.875117l-15.702634 0 8.066723-51.087539 15.702634 0L797.120224 667.875117zM718.248899 616.787578l15.703657 0-8.066723 51.087539-15.703657 0L718.248899 616.787578z" p-id="13547"></path></svg>