<?xml version="1.0" standalone="no"?><!DOCTYPE svg PUBLIC "-//W3C//DTD SVG 1.1//EN" "http://www.w3.org/Graphics/SVG/1.1/DTD/svg11.dtd"><svg t="1533540383391" class="icon" style="" viewBox="0 0 1024 1024" version="1.1" xmlns="http://www.w3.org/2000/svg" p-id="13889" xmlns:xlink="http://www.w3.org/1999/xlink" width="200" height="200"><defs><style type="text/css"></style></defs><path d="M696.2 314.9c0 5.7-0.2 11.4-0.6 17.1-0.2 3.1-0.5 6.1-0.9 9.2-0.1 1-0.3 2-0.4 3 0.9-8.5 0.1-1.1-0.2 0.7-1.8 11.2-4.5 22.2-8 32.9-1.6 5-3.5 9.8-5.4 14.7-2 5.1 2.5-5.6 0.3-0.7-0.6 1.3-1.2 2.7-1.8 4-1.2 2.7-2.5 5.3-3.9 8-5 9.8-10.7 19.2-17.1 28.2-1.5 2.2-3.3 4.3-4.8 6.5 4.6-6.7-0.1 0-1.4 1.7-3.7 4.5-7.6 8.8-11.7 13-3.7 3.8-7.6 7.6-11.6 11.1-1.8 1.6-3.6 3.2-5.5 4.8-1.1 0.9-2.2 1.9-3.4 2.8-0.8 0.6-1.5 1.2-2.3 1.8 3.3-2.5 3.9-3 1.7-1.3-8.7 6.4-17.6 12.3-27 17.5-4.7 2.6-9.6 5-14.5 7.3-1.3 0.6-2.7 1.2-4 1.8-3.9 1.7 1.7-0.7 2-0.9-3.3 1-6.5 2.6-9.7 3.7-10.4 3.7-21 6.7-31.8 8.8-3 0.6-6 1.1-9 1.6-1 0.2-2 0.3-3 0.5 7.9-1.4 2.5-0.3 0.7-0.1-6.2 0.7-12.3 1.2-18.5 1.4-11.4 0.4-22.8-0.1-34.2-1.4-2-0.2-6.6-1.7 0.7 0.1-1.5-0.4-3-0.5-4.5-0.7-2.5-0.4-5-0.9-7.5-1.4-5.9-1.2-11.8-2.6-17.6-4.3-5.3-1.5-10.5-3.2-15.6-5.1l-6.9-2.7c-5.1-2 5.6 2.5 0.7 0.3-1.3-0.6-2.7-1.2-4-1.8-10.2-4.7-20.1-10.2-29.5-16.4-4.5-3-8.7-6.3-13.1-9.3 6.7 4.6-0.1-0.1-1.7-1.4-2.2-1.9-4.5-3.8-6.6-5.7-8.3-7.5-16.1-15.5-23.2-24.2-0.9-1.1-1.8-2.3-2.8-3.4-2.6-3.2 1.1 1.4 1.3 1.7-1.6-2.4-3.5-4.7-5.2-7.1-3.2-4.6-6.3-9.3-9.2-14.1-2.6-4.4-5.1-8.9-7.5-13.5-1.3-2.6-2.6-5.3-3.9-8-0.5-1.1-1-2.2-1.5-3.4-2.6-5.7 1.8 4.7 0 0-4.2-10.7-7.8-21.5-10.4-32.7-1.2-4.9-2.2-9.9-3-14.9-0.2-1.5-0.3-3.1-0.7-4.5 1.8 7.3 0.4 2.8 0.1 0.7-0.4-3.1-0.7-6.1-0.9-9.2-0.9-11.9-0.9-23.9 0.1-35.8 0.2-2.6 0.5-5.1 0.8-7.7 0.2-2 1.7-6.6-0.1 0.7 0.3-1.2 0.4-2.5 0.6-3.8 0.9-5.7 2.1-11.4 3.4-17.1 2.7-11.2 7.1-21.7 10.6-32.6-2.4 7.7 0 0 1-2 1.2-2.7 2.5-5.3 3.9-8 2.4-4.8 5.1-9.5 7.8-14.1 2.8-4.6 5.7-9.1 8.8-13.5 1.5-2.2 3.2-4.3 4.8-6.5 2-2.8-4.1 5.2-0.9 1.2 1.2-1.5 2.4-3 3.7-4.5 6.9-8.2 14.3-15.9 22.3-23 2.2-1.9 4.4-3.9 6.6-5.7 1.4-1.2 8.5-6.1 1.7-1.4 4.8-3.3 9.4-6.9 14.3-10.1 9-5.9 18.5-11.1 28.3-15.6 1.3-0.6 2.7-1.2 4-1.8 5-2.2-5.8 2.3-0.7 0.3l6.9-2.7c5.6-2.1 11.3-3.9 17-5.5 5.3-1.5 10.7-2.8 16.1-3.9 2.5-0.5 5-1 7.5-1.4 1.5-0.2 3.1-0.3 4.5-0.7-7.6 1.9-2.1 0.3 0 0 11.6-1.3 23.3-1.7 35-1.2 5.7 0.2 11.3 0.7 17 1.3 2.1 0.2 6.5 1.8-0.7-0.1 0.9 0.2 2.1 0.3 3 0.5 3.5 0.6 7 1.2 10.5 1.9 10.8 2.2 21.4 5.3 31.7 9 2.6 0.9 5.1 2 7.6 3 3.3 1.2-6.1-2.7-1.4-0.6 1.3 0.6 2.7 1.2 4 1.8 5.4 2.5 10.6 5.1 15.7 8 9.5 5.3 18 11.6 26.9 17.7-7-4.7 1.2 1 2.8 2.4 1.9 1.6 3.7 3.2 5.5 4.8 4.3 3.9 8.5 8 12.6 12.2 3.5 3.7 6.9 7.5 10.2 11.4 1.3 1.6 6.6 9.1 1.9 2.2 1.6 2.4 3.5 4.7 5.2 7.1 6.5 9.2 12.3 18.9 17.3 28.9 1.1 2.2 2.2 4.4 3.2 6.6 0.6 1.3 1.2 2.7 1.8 4 2.2 5-2.3-5.8-0.3-0.7s3.9 10.2 5.6 15.4c3.6 11 6.2 22.3 8 33.7 0.3 1.8 0.6 7.1 0-0.8 0.1 1 0.3 2 0.4 3 0.4 3.1 0.7 6.1 0.9 9.2 0.9 6.3 1.1 12 1.1 17.8 0 13.4 11.8 26.3 25.7 25.7 13.9-0.6 25.7-11.3 25.7-25.7-0.2-50.9-15.7-102.2-45.4-143.7-30.4-42.4-71.9-74.3-120.9-92.3-96.8-35.6-211.6-4.3-276.9 75.5-33.6 41.1-53.7 90.4-57.6 143.4-3.8 50.6 8.9 102.8 35.1 146.2 25.6 42.4 64.2 77.8 109.4 98.2 49.4 22.4 103.7 28.8 156.9 18.1 99.3-19.9 180.8-104.3 196-204.7 2-13.5 3.4-27.1 3.5-40.8 0-13.4-11.8-26.3-25.7-25.7-14 0.7-25.7 11.4-25.8 25.8z" p-id="13890"></path><path d="M504.8 514.3c-84.8 0.2-169.4 26.2-238.5 75.5-69.3 49.4-122.1 118.1-151.5 198-16.6 45-24.7 93.4-24.8 141.4 0 14 11.8 25.6 25.7 25.7l39.8 0.3c31.8 0.3 63.7 0.5 95.5 0.8 38.5 0.3 77 0.6 115.6 1 33.3 0.3 66.6 0.6 99.9 0.8 16.2 0.1 32.4 0.7 48.6 0.4h0.7c13.4 0.1 26.3-11.9 25.7-25.7-0.6-14-11.3-25.5-25.7-25.7l-39.8-0.3c-31.8-0.3-63.7-0.5-95.5-0.8-38.5-0.3-77-0.6-115.6-1-33.3-0.3-66.6-0.6-99.9-0.8-16.2-0.1-32.4-0.9-48.6-0.4h-0.7l25.7 25.7c0-10.4 0.4-20.8 1.2-31.2 0.4-4.6 0.8-9.2 1.3-13.8 0.2-2.1 1.9-10.7 0.2-2.3 0.5-2.7 0.8-5.6 1.3-8.3 3.2-19.6 7.8-39 14-57.9 3-9.2 6.4-18.3 10-27.3 0.7-1.7 2.5-5.1-0.6 1.3l1.2-2.7c1-2.3 2-4.5 3-6.8 2.1-4.5 4.2-8.9 6.4-13.3 8.7-17.3 18.8-33.9 30-49.7 2.7-3.8 5.7-7.4 8.3-11.2-4.5 6.6-0.3 0.4 0.9-1.1 1.7-2.1 3.4-4.2 5.1-6.2 6.2-7.5 12.7-14.7 19.5-21.8 6.4-6.7 13.1-13.1 20-19.3 3.6-3.3 7.3-6.4 11.1-9.6l5.1-4.2c1.5-1.2 9.2-6.5 2.3-1.9 15.9-10.7 31-22 47.8-31.3 8.6-4.8 17.4-9.2 26.3-13.3 2-0.9 4-1.8 6.1-2.7 1.1-0.5 2.3-0.9 3.4-1.5-6.2 3-3.5 1.5-2 0.9 4.8-2 9.7-3.9 14.5-5.7 20.7-7.6 42.1-13.4 63.8-17.3 2.8-0.5 5.5-1 8.3-1.4 1-0.2 2-0.3 3-0.5 0.9-0.1 7.5-1 2.7-0.4-4.7 0.6 0.4 0 1.2-0.1 1.5-0.2 3.1-0.4 4.6-0.5 2.8-0.3 5.6-0.6 8.4-0.8 11.7-1 23.4-1.5 35.1-1.6 13.4 0 26.3-11.8 25.7-25.7-0.7-14-11.4-25.8-25.8-25.7z" p-id="13891"></path><path d="M411.1 745.8h-116c-11 0-20-9-20-20v-6c0-11 9-20 20-20h116c11 0 20 9 20 20v6c0 11-9 20-20 20z" p-id="13892"></path><path d="M330.1 786.8v-116c0-11 9-20 20-20h6c11 0 20 9 20 20v116c0 11-9 20-20 20h-6c-11 0-20-9-20-20z" p-id="13893"></path><path d="M925.1 768.9c-32.6 4.6-62 24-79.8 51.7-19 29.5-24.6 71.1-8.5 103.1 2.7-10.4 5.5-20.9 8.2-31.3-13.4 7.3-26.8 14.5-40.2 21.8 9.3 1.2 18.5 2.4 27.8 3.6-5.1-5.1-10-10.4-15.3-15.3-6.7-6.2-15.8-11.1-24.1-14.9-8.3-3.8-16.8-7-25.8-8.6-18.9-3.2-37.7-1.6-55.6 5.5-9.7 3.9-19.4 8.2-28.1 14.2-4.6 3.1-8.8 7.2-13 10.8-4.3 3.6-8.1 8-10.7 12.9 10.4-2.7 20.9-5.5 31.3-8.2-12.4-7.3-24.8-14.5-37.3-21.8 2.7 10.4 5.5 20.9 8.2 31.3 8.4-19.2 10.8-38.5 7.7-59.2-2.3-15.1-8-30.1-16.3-43-17.8-27.6-47-47.8-79.7-52.5 5.6 7.4 11.2 14.7 16.8 22.1-0.1-5.9-1.2-11.8-2.1-17.6-0.5-3.2 0.7 5.9 0 0-0.1-1.2-0.3-2.5-0.4-3.7-0.3-3.2-0.5-6.5-0.5-9.8 0-2.4 0.2-4.7 0.4-7 0.1-1.4 0.3-2.8 0.5-4.2 0.3-2.9 0.1-0.7-0.1 0.9 0.9-6.9 2.1-13.8 2.2-20.7-5.6 7.4-11.2 14.7-16.8 22.1 32.6-4.7 62-24.1 79.8-51.7 19-29.4 24.7-71.1 8.5-103-2.7 10.4-5.5 20.9-8.2 31.3 13.4-7.3 26.8-14.6 40.2-21.8-9.3-1.2-18.5-2.4-27.8-3.6 20.5 20.7 50.7 37.4 80.4 37.7 15.7 0.2 30.7-4.7 44.7-11.6 8.3-4.1 16.1-8.9 23.1-14.9 1.1-0.9 4.5-5.1 1-1 0.8-0.9 2.2-1.6 3.2-2.3 3.4-2.5 7-4.9 9.9-8-9.3 1.2-18.5 2.4-27.8 3.6 13.4 7.3 26.8 14.6 40.2 21.8-2.7-10.4-5.5-20.9-8.2-31.3-8.5 19.1-10.8 38.3-7.8 59 2.3 15.2 8 30.4 16.4 43.3 17.8 27.5 47 47.8 79.7 52.5-5.6-7.4-11.2-14.7-16.8-22.1 0 2 0.3 4 0.5 6.1 0.3 2.5 0.7 5 1 7.5 0.1 0.8 0.7 5.3 0.2 1.7-0.5-3.8 0.2 2 0.3 2.2 0.1 1.2 0.3 2.5 0.4 3.7 0.3 3.2 0.2 6.5 0.5 9.7 0.2 2.8 0.7 9.6 3.1 11.6-1.1-2.8-1.4-3.3-1-1.7 0.3 1.3 0.3 1 0-0.6-0.2-3.9 0 1.7 0 2 0 1.1 0 2.3-0.1 3.4-0.2 5.5-1.1 10.9-1.2 16.4-0.2 12 10.7 23.4 22.9 22.9 12.6-0.6 22.7-10.1 22.9-22.9 0.1-5.8 1.1-11.5 1.3-17.3 0.3-9.1-1.8-17-5.3-25.3 1 3.9 2.1 7.7 3.1 11.6-0.1-6-0.7-11.9-1.4-17.9-0.3-2.6-0.7-5.2-1-7.8-0.5-3.8 0.4-1.5 0.1 0.7 0.2-1.9-0.5-4.2-0.5-6.1-0.2-9-6.9-20.7-16.8-22.1-6.3-0.9-12.5-2.3-18.5-4.5-0.9-0.3-1.8-0.7-2.7-1-2.3-0.9-1.8-0.7 1.5 0.7-0.5-0.7-3.1-1.5-3.9-1.8-2.5-1.3-5-2.7-7.5-4.2-1.6-1-3.2-2-4.7-3.1-0.4-0.3-0.8-0.5-1.1-0.8-1.9-1.4-1.5-1.1 1.3 1-0.6-1.8-5-4.2-6.3-5.6-2.4-2.3-4.6-4.7-6.7-7.2-0.5-0.5-0.9-1.1-1.3-1.6-1.1-1.3-0.6-0.7 1.4 1.9-0.2-1.1-2.2-3-2.8-4-1.7-2.5-3.3-5.2-4.7-7.9-0.7-1.2-1.3-2.5-1.9-3.8-0.4-0.9-0.8-1.7-1.2-2.6 1.3 3.1 1.6 3.8 0.9 2.2-2.1-5.9-4-11.7-5.1-17.9-1-5.8 0.3 4.3-0.1-0.4-0.1-1.5-0.3-2.9-0.4-4.4-0.2-3.4 0-6.7 0-10.1 0.2-1.7 0.1-1.1-0.3 1.8 0.2-1.2 0.4-2.3 0.6-3.5 0.3-1.7 0.7-3.4 1.2-5.1 0.4-1.6 0.9-3.1 1.4-4.7 0.5-1.6 3.3-8 0.1-0.9 4.9-11 3.6-24.9-8.2-31.3-13.4-7.3-26.8-14.6-40.2-21.8-8.8-4.8-20.6-3.9-27.8 3.6-1.9 2-2.8 1.2 1.1-0.5-0.8 0.3-1.6 1.2-2.3 1.7-3.6 2.6-7.2 5.3-10.7 8.1-1.3 1.1-3.3 2.6-0.8 0.8-1.4 1-2.9 1.8-4.3 2.7-3 1.8-6.1 3.6-9.2 5.2-1.1 0.6-2.2 1.1-3.3 1.6-0.8 0.4-1.6 0.7-2.4 1.1-1.6 0.7-1.1 0.5 1.5-0.6-1.7 1.4-5.6 2-7.8 2.6-0.6 0.2-7.6 1.6-7.6 1.6 3.3-0.4 4.1-0.5 2.3-0.4-0.7 0.1-1.5 0.1-2.2 0.2-1.2 0.1-2.5 0.1-3.7 0.1-1.2 0-2.4-0.1-3.6-0.1-1-0.1-5.1 0.1-1.3-0.1 3.7-0.2-0.3-0.1-1.4-0.4-1.2-0.3-2.5-0.6-3.7-0.9-1.2-0.3-7.4-3.2-8.3-2.8 1-0.5 4.2 1.9 0 0-1.3-0.6-2.6-1.3-3.9-1.9-5.7-2.9-11-6.4-16.3-9.9-0.9-0.6-5.8-3-1-0.4-1.2-0.6-2.2-1.9-3.2-2.7-1.8-1.6-3.5-3.3-5.2-5.1-7.3-7.4-18.8-8.4-27.8-3.6-13.4 7.3-26.8 14.6-40.2 21.8-11.3 6.1-13.7 20.6-8.2 31.3 1 2.1 0.8 1.4-0.8-2.1 0.3 0.9 0.7 1.8 1 2.7 0.5 1.5 0.9 3 1.3 4.5 0.4 1.6 0.8 3.2 1.1 4.8l0.6 3.3c-0.4-3.4-0.5-3.8-0.2-1.2 0.1 3.3 0.2 6.6 0.1 9.9-0.1 1.8-0.3 3.5-0.4 5.3-0.4 5.2 1-5.3 0-0.2-1.2 6.4-2.9 12.5-5 18.7-1.9 5.4 1.9-3.7-0.1 0.3-0.6 1.2-1.2 2.5-1.8 3.7-1.5 2.8-3.1 5.6-4.9 8.3-0.8 1.1-1.6 2.2-2.4 3.4-1.4 1.9-1.1 1.5 1.1-1.4-0.6 0.7-1.2 1.4-1.7 2.1-1.8 2.1-3.6 4-5.6 5.9-1.3 1.3-2.6 2.5-4 3.7-1.5 1.3-4.8 2.6 0.4-0.2-2.7 1.5-5.2 3.8-7.9 5.4-2.4 1.4-4.8 2.8-7.3 4-0.8 0.4-1.7 0.8-2.5 1.2-2.2 1-1.7 0.8 1.6-0.7-0.9 0-3 1.2-3.9 1.5-6.3 2.2-12.8 3.7-19.5 4.7-9.9 1.4-16.7 12.9-16.8 22.1 0 2.6-0.2 5.2-0.5 7.8-0.1 1.1-0.3 2.2-0.4 3.4-0.1 0.6-0.1 1.1-0.2 1.7 0.5-3.7 0.5-3.5-0.1 0.4-0.8 5.9-1.7 11.8-1.8 17.7 0 5.7 0.6 11.4 1.4 17 0.4 2.9 0.8 5.7 1.2 8.6 0.3 2.1-0.5 4.6-0.1-0.7-0.1 1.9 0.5 4.1 0.5 6.1 0.2 9 6.9 20.7 16.8 22.1 6.4 0.9 12.6 2.4 18.7 4.5 0.8 0.3 6.5 1.9 2.7 1-3.6-0.9 1.6 0.8 2.5 1.3 2.6 1.3 5.1 2.7 7.5 4.2 1.2 0.8 2.4 1.5 3.6 2.4 0.8 0.6 5.6 3 2.3 1.6-1.6-1.2-1.6-1.2-0.1 0 0.7 0.6 1.4 1.2 2.2 1.9 1.1 0.9 2.1 1.9 3.1 2.9 2.2 2.2 4.2 4.5 6.3 6.7 3.8 4.2-2.2-3.3 0.4 0.4 0.8 1.2 1.7 2.3 2.4 3.5 1.6 2.4 3 4.8 4.4 7.3 0.8 1.5 1.5 3 2.3 4.5 2.5 5.2-1.4-3.9 0.3 0.4 2.2 5.9 3.8 11.9 5.1 18.1 0.9 4.5-0.5-5.2 0-0.2 0.1 1.5 0.3 3 0.4 4.4 0.2 2.6 1.3 8.9-0.1 11 0.1-0.9 0.3-1.8 0.4-2.6-0.2 1.2-0.4 2.3-0.6 3.5-0.3 1.7-0.7 3.4-1.2 5.1-0.4 1.6-0.9 3.2-1.4 4.7-0.5 1.6-3.2 8-0.1 1-5 11.3-3.5 24.5 8.2 31.3 12.4 7.3 24.8 14.5 37.3 21.8 10.3 6.1 25.5 2.7 31.3-8.2 2.1-3.9-3.5 3.1 0.6-1 1.4-1.4 2.9-2.5 4.3-3.8 1.4-1.1 2.8-2.2 4.2-3.5 3.4-3.1-2.8 1.3 1.8-1.3 3.5-1.9 6.9-4 10.5-5.8 0.6-0.3 7-3.2 4.1-2-2.9 1.2 2.6-0.9 3.2-1.2 3.5-1.2 7-2.3 10.7-3.1 1.3-0.3 3.5-0.4 4.8-0.9-3.5 0.4-4 0.5-1.5 0.2 0.5 0 1-0.1 1.5-0.1 3.4-0.2 6.9-0.2 10.4 0 0.8 0.1 1.6 0.1 2.5 0.2 2.6 0.3 2.2 0.2-1.2-0.2 0.8-0.4 3.9 0.7 4.8 0.9 3.2 0.7 6.3 1.7 9.4 2.8 1 0.4 2.1 0.8 3.1 1.2-0.8-0.3-1.6-0.6-2.4-1 1.7 0.2 3.9 1.9 5.5 2.7 3.6 1.9 6.9 4.2 10.5 6.2 5.2 2.9-3.2-3.6-0.2-0.3 4.5 5 9.6 9.6 14.4 14.4 7.4 7.4 18.8 8.4 27.8 3.6 13.4-7.3 26.8-14.5 40.2-21.8 11.4-6.1 13.6-20.6 8.2-31.3-1-2.1-0.8-1.4 0.8 2-0.3-0.9-0.7-1.8-1-2.7-0.5-1.5-0.9-3-1.3-4.5-0.4-1.6-0.8-3.2-1.1-4.8l-0.6-3.3c0.4 3.4 0.5 3.8 0.2 1.2-0.1-3.3-0.2-6.6-0.1-9.9 0.1-1.8 0.3-3.5 0.4-5.3 0.4-5.2-1 5.3 0 0.2 1.2-6.4 2.9-12.5 5-18.7 1.9-5.4-1.9 3.7 0.1-0.3 0.6-1.2 1.2-2.5 1.8-3.7 1.5-2.8 3.1-5.6 4.9-8.3 0.8-1.1 1.6-2.2 2.3-3.4 1.4-1.9 1.1-1.5-1.1 1.4 0.6-0.7 1.1-1.4 1.7-2.1 1.8-2.1 3.6-4 5.6-5.9 1.3-1.3 2.6-2.5 4-3.7 1.5-1.3 4.8-2.5-0.4 0.2 2.7-1.4 5.2-3.8 7.9-5.4 2.4-1.4 4.8-2.7 7.3-4 0.8-0.4 1.7-0.8 2.5-1.2 2.2-1 1.7-0.8-1.6 0.7 0.9 0 3.1-1.2 3.9-1.5 6.3-2.2 12.9-3.7 19.5-4.7 5.3-0.7 11.1-6.2 13.7-10.5 2.9-4.9 4.1-12.1 2.3-17.6-4.8-12.7-16-17.5-28.8-15.7z" p-id="13894"></path><path d="M782.1 759.1c0 1.4-0.1 2.8-0.2 4.2-0.1 4.8 1.1-5 0.1-0.3-0.5 2.2-0.9 4.4-1.6 6.5-0.3 0.8-1.4 2.9-1.3 3.7 0.4-0.9 0.8-1.8 1.1-2.7-0.4 0.8-0.7 1.6-1.1 2.4-1.2 2.3-2.6 4.5-4.1 6.7-2.5 3.8 3.3-3.6 0.2-0.3-0.6 0.6-1.1 1.3-1.7 1.9-0.9 0.9-1.8 1.8-2.8 2.7-0.3 0.3-0.6 0.6-1 0.9-1.7 1.4-1.3 1.1 1.3-0.9-1.6 0.5-3.9 2.7-5.4 3.6-1.1 0.7-2.3 1.2-3.5 1.8-3.6 2 4.7-1.4-0.3 0.1-2.4 0.7-4.6 1.5-7.1 2-2.2 0.5-4.9-0.3 0.4 0.1-0.8-0.1-1.9 0.2-2.7 0.2-1.6 0.1-7.1-1-8.3-0.2 1.4-0.9 4.8 0.8 1 0.1-1.5-0.3-3.1-0.7-4.6-1.1-1.3-0.4-2.5-0.8-3.8-1.2-4.2-1.3 3.3 2 0.9 0.4-2-1.3-4.3-2.2-6.3-3.5-0.9-0.6-2.2-1.9-3.2-2.2 2.8 0.8 3 2.5 1.3 0.9-0.9-0.9-1.9-1.7-2.8-2.6-0.7-0.7-2.6-3.6-3.5-3.8 1.6 0.4 2.5 3.6 1 1.3-0.7-1.1-1.5-2.1-2.1-3.3-0.7-1.1-1.3-2.3-1.9-3.4-0.3-0.5-2-4.5-0.6-1s-0.2-0.6-0.3-1.1c-0.4-1.3-0.8-2.5-1.1-3.8l-0.9-3.9c-0.9-4.1 0.2 4.9 0.1 0.3-0.1-2.8-0.1-5.5 0-8.3 0.1-3.7 0 1.2-0.3 1.6 0.5-0.7 0.5-3 0.8-4 0.5-2.4 1.6-4.6 2.1-7 0.7-2.8-2.5 4.8-0.4 0.9 0.8-1.5 1.6-3.1 2.5-4.6l1.8-2.7c1.9-3 1.4 0.2-0.6 0.7 1.4-0.4 4.1-4.5 5.4-5.6 0.3-0.3 1.9-1.4 2-1.7-0.8 0.6-1.5 1.2-2.3 1.8l2.1-1.5c2.2-1.5 4.5-2.6 6.8-3.9 4.1-2.2-4.7 1.5-0.3 0.1 1.3-0.4 2.5-0.9 3.8-1.2 1.7-0.5 5.1-0.6 6.6-1.4-1 0.1-2 0.3-3 0.4 0.9-0.1 1.8-0.2 2.7-0.2 1.4-0.1 2.8-0.1 4.2-0.1 0.9 0 1.8 0.1 2.8 0.1 2.4 0.2 1.8 0.1-1.6-0.3 0.9 0.1 1.8 0.3 2.7 0.5 2.6 0.5 5.1 1.4 7.7 2.2 4.5 1.4-4.4-2.3-0.3-0.1 1.5 0.8 3.1 1.6 4.6 2.5 0.7 0.5 1.5 0.9 2.2 1.4l2.1 1.5c-2.6-2.1-3.1-2.4-1.3-0.9 1.9 1.8 3.7 3.6 5.5 5.5 3.2 3.3-2.7-4.1-0.2-0.3 0.8 1.3 1.7 2.5 2.5 3.8 0.6 0.9 1.1 1.9 1.6 2.9 0.4 0.8 0.8 1.6 1.1 2.4-1.3-3.1-1.5-3.6-0.7-1.5 0.8 2.6 1.6 5 2.2 7.7 0.1 0.4 0.2 0.9 0.3 1.3 0.4 2.3 0.3 1.8-0.2-1.7-0.9 0.4-0.1 4.2-0.1 5.2 0.1 11.2 9.8 22 21.5 21.5 11.5-0.5 21.7-9.5 21.5-21.5-0.4-32.3-20.5-60-50.6-71.2-28-10.5-62.6-1.3-81.8 21.7-20.6 24.8-24.9 60.3-7.9 88.4 16.9 27.8 49.1 41 80.7 34.9 34.7-6.6 59.1-39.2 59.6-73.8 0.1-11.2-10-22-21.5-21.5-11.8 0.5-21.3 9.5-21.5 21.5z" p-id="13895"></path></svg>