<?xml version="1.0" standalone="no"?><!DOCTYPE svg PUBLIC "-//W3C//DTD SVG 1.1//EN" "http://www.w3.org/Graphics/SVG/1.1/DTD/svg11.dtd"><svg t="1533538355384" class="icon" style="" viewBox="0 0 1024 1024" version="1.1" xmlns="http://www.w3.org/2000/svg" p-id="10902" xmlns:xlink="http://www.w3.org/1999/xlink" width="200" height="200"><defs><style type="text/css"></style></defs><path d="M858.398358 806.701952H170.343643c-58.45739 0-105.851816-47.394427-105.851816-105.856933V171.572634c0-58.45739 47.394427-105.851816 105.851816-105.851817h688.054715c58.462506 0 105.851816 47.394427 105.851816 105.851817v529.271362c0.001023 58.462506-47.388287 105.857956-105.851816 105.857956z m52.92642-635.129318c0-29.230742-23.695678-52.92642-52.92642-52.92642H170.343643c-29.230742 0-52.92642 23.695678-52.92642 52.92642v529.271362c0 29.231765 23.695678 52.931536 52.92642 52.931536h688.054715c29.230742 0 52.92642-23.699772 52.92642-52.931536V171.572634z m-79.392188 476.345965H673.154353c-14.617929 0-26.465768-11.847839-26.465768-26.460651 0-14.617929 11.847839-26.465768 26.465768-26.465769h158.778237c14.617929 0 26.465768 11.847839 26.465768 26.465769 0 14.612813-11.846816 26.460652-26.465768 26.460651z m0-158.778236H620.228957c-14.617929 0-26.465768-11.851932-26.465768-26.465768 0-14.613836 11.847839-26.465768 26.465768-26.465769h211.704656c14.617929 0 26.465768 11.851932 26.465768 26.465769-0.001023 14.613836-11.847839 26.465768-26.466791 26.465768z m0-158.784376H620.228957c-14.617929 0-26.465768-11.847839-26.465768-26.465769 0-14.612813 11.847839-26.460652 26.465768-26.460651h211.704656c14.617929 0 26.465768 11.847839 26.465768 26.460651-0.001023 14.618952-11.847839 26.465768-26.466791 26.465769zM249.735831 859.627349h529.271362c14.617929 0 26.465768 11.847839 26.465768 26.465768 0 14.612813-11.847839 26.460652-26.465768 26.460652H249.735831c-14.613836 0-26.460652-11.847839-26.460652-26.460652 0-14.617929 11.846816-26.465768 26.460652-26.465768z m0 0" p-id="10903"></path><path d="M375.415228 683.229826c-40.968064 0-74.299193-32.214702-74.299193-71.819722v-76.732615h-13.8044v-13.418615c-76.717266-10.290367-92.238774-99.502202-103.665011-165.194366 0 0-1.874697-10.753925-2.621711-14.865569-5.695722-31.522947-1.199315-56.242955 13.364379-73.478501 16.488533-19.526729 39.093367-20.777209 41.61684-20.856004l20.281929-0.01228c5.16872-4.107551 11.539824-6.336312 18.281365-6.336312 16.040325 0 29.090549 12.69616 29.090549 28.300556 0 15.604396-13.049201 28.300556-29.090549 28.300557a29.435403 29.435403 0 0 1-16.940834-5.365195h-19.896143c-1.155313 0.200568-5.074575 1.12052-8.014534 4.752234-5.290493 6.53688-6.485715 19.637246-3.372817 36.892235 0.88823 4.92108 1.77646 9.991562 2.672876 15.156188 11.336186 65.161069 23.080671 116.408243 58.294684 126.835734v-10.286274h72.204485v9.468652c33.264615-12.027941 44.671409-62.330604 55.751769-126.033461 0.900509-5.164626 1.784646-10.226922 2.672875-15.140839 3.155876-17.483186 1.89414-30.66644-3.557012-37.112246-2.908236-3.447519-6.705726-4.339842-7.818059-4.532223h-19.908422a29.41596 29.41596 0 0 1-16.940834 5.365195c-16.040325 0-29.090549-12.692067-29.090549-28.296463 0-15.608489 13.049201-28.303626 29.090549-28.303626 6.744611 0 13.116739 2.228761 18.288528 6.336312l20.030195 0.008186c2.76702 0.082888 25.367761 1.332345 41.86448 20.863167 14.558577 17.235546 19.051915 41.954531 13.356193 73.466222l-2.617617 14.869662c-11.272741 64.811098-26.590612 152.83999-101.122096 164.820859v13.796215h-12.380981v76.732615c0 14.842033 12.687974 26.917046 28.28009 26.917046h4.272303c15.59621 0 28.284183-12.075013 28.284183-26.917046v-45.25674c0-39.603996 33.331129-71.826885 74.299194-71.826885h4.276396c40.968064 0 74.299193 32.222889 74.299193 71.826885v11.610432c20.470217 8.616238 33.841759 28.079522 33.84176 50.107211 0 30.15581-25.344225 54.682413-56.497759 54.682414-31.146371 0-56.486502-24.526603-56.486502-54.682414 0-21.641903 13.08911-40.972157 33.123398-49.761333v-11.957333c0-14.849196-12.687974-26.924209-28.28009-26.92421h-4.276396c-15.592117 0-28.28009 12.075013-28.28009 26.92421v45.25674c0 39.603996-33.331129 71.819722-74.303287 71.819722h-4.273327z m145.392368-69.602218c-2.698458 3.377934-4.185322 7.413853-4.185322 11.620666 0 11.004635 9.66615 19.948331 21.563108 19.948331s21.584598-8.943696 21.584598-19.948331c0-4.227278-1.486864-8.264221-4.185322-11.620666h-34.777062z" p-id="10904"></path></svg>