<?xml version="1.0" standalone="no"?><!DOCTYPE svg PUBLIC "-//W3C//DTD SVG 1.1//EN" "http://www.w3.org/Graphics/SVG/1.1/DTD/svg11.dtd"><svg t="1533538343252" class="icon" style="" viewBox="0 0 1024 1024" version="1.1" xmlns="http://www.w3.org/2000/svg" p-id="10676" xmlns:xlink="http://www.w3.org/1999/xlink" width="200" height="200"><defs><style type="text/css"></style></defs><path d="M85.312 938.688h853.376V85.312H256v768H170.688v-640H85.312v725.376z m896 85.312H42.688A42.688 42.688 0 0 1 0 981.312V170.688C0 147.136 19.136 128 42.688 128h128V42.688c0-23.552 19.072-42.688 42.624-42.688h768c23.552 0 42.688 19.136 42.688 42.688v938.624a42.688 42.688 0 0 1-42.688 42.688z" p-id="10677"></path><path d="M392.512 324.288h128V238.912h-128v85.376zM563.2 409.6H349.888a42.688 42.688 0 0 1-42.688-42.688V196.288c0-23.552 19.136-42.688 42.688-42.688H563.2c23.552 0 42.688 19.136 42.688 42.688v170.624A42.688 42.688 0 0 1 563.2 409.6zM716.8 238.912h170.688V153.6H716.8zM716.8 443.712h170.688V358.4H716.8zM307.2 597.312h554.688V512H307.2zM307.2 750.912h554.688V665.6H307.2z" p-id="10678"></path></svg>