<?xml version="1.0" standalone="no"?><!DOCTYPE svg PUBLIC "-//W3C//DTD SVG 1.1//EN" "http://www.w3.org/Graphics/SVG/1.1/DTD/svg11.dtd"><svg t="1533538433825" class="icon" style="" viewBox="0 0 1024 1024" version="1.1" xmlns="http://www.w3.org/2000/svg" p-id="12950" xmlns:xlink="http://www.w3.org/1999/xlink" width="200" height="200"><defs><style type="text/css"></style></defs><path d="M996.203422 19.611663 27.832394 19.611663c-15.338337 0-27.774577 14.628162-27.774577 32.671097l0 917.197532c0 18.044982 12.43624 32.673144 27.774577 32.673144l968.370005 0c15.33936 0 27.7756-14.628162 27.7756-32.673144L1023.977999 52.28276C1023.977999 34.239825 1011.542782 19.611663 996.203422 19.611663zM962.913225 888.048655c0 29.836539-19.154245 54.027497-42.784432 54.027497L102.031303 942.076152c-23.627117 0-42.784432-24.190959-42.784432-54.027497L59.246871 133.712351c0-29.838585 19.157315-54.025451 42.784432-54.025451L920.129816 79.6869c23.630187 0 42.784432 24.187889 42.784432 54.025451L962.914248 888.048655z" p-id="12951"></path><path d="M586.257749 497.517147c-25.117051-20.382213-52.239781-38.767955-81.357959-55.149041l-22.387893 26.208918c29.485545 20.024056 55.874565 39.497573 79.174224 58.425667L586.257749 497.517147z" p-id="12952"></path><path d="M587.35064 386.67262 437.738158 386.67262l0 37.129642 301.955146 0c-13.104459 23.300682-28.392654 46.596248-45.865607 69.891813 12.012591 3.276626 25.117051 8.190543 39.314401 14.742772 17.472953-24.388457 34.57854-52.597939 51.325969-84.635609l0-37.129642L628.848777 386.671597 628.848777 331.523579l129.955794 0 0-37.130665L628.848777 294.392914l0-57.879222L587.35064 236.513692l0 57.879222L459.03316 294.392914l0 37.130665L587.35064 331.523579 587.35064 386.67262z" p-id="12953"></path><path d="M444.290387 529.186428c36.401048 26.209942 62.793138 47.14167 79.174224 62.794162l25.118074-30.033014c-19.294438-16.742313-46.780443-36.216853-82.45085-58.424644L444.290387 529.186428z" p-id="12954"></path><path d="M785.014512 637.300774l0-37.129642L640.862391 600.171132c6.91448-35.671431 10.374278-88.090291 10.374278-157.257603l-39.859823 0c0.725524 71.351048-3.096525 123.769908-11.466146 157.257603L435.553399 600.171132l0 37.129642 150.158928 0c-23.300682 44.411489-79.720669 78.80788-169.270195 103.20043 9.099239 13.105482 16.743336 25.842575 22.933315 38.222533 85.181031-24.026206 144.152121-61.701271 176.914292-113.028263 52.41886 35.670407 100.101859 72.254627 143.060253 109.75266l30.577413-33.854039c-49.5096-36.405141-99.197256-71.163783-149.066037-104.292298L785.014512 637.301797z" p-id="12955"></path><path d="M339.998089 446.190155c-32.762171 55.695486-60.430324 93.192495-82.996273 112.482841l8.736988 39.859823c60.788481-8.735965 112.481817-15.651468 155.072845-20.748556 1.091868-9.099239 2.363837-21.474081 3.822049-37.129642-34.583656 5.097088-71.714322 9.465582-111.390973 13.104459 36.763298-52.41886 78.261435-119.580492 124.495432-201.484897l-38.222533-18.018376c-14.19735 28.393677-27.669176 54.240345-40.406269 77.536934-24.7548 0.729617-46.77942 1.091868-66.069765 1.091868 25.480324-41.86141 54.602595-94.826715 87.364767-158.894893l-41.498136-15.288195c-33.129538 80.450287-63.523779 139.604548-91.187839 177.459714l10.920724 36.037774C279.388686 450.378547 306.506301 448.373891 339.998089 446.190155z" p-id="12956"></path><path d="M427.909301 652.04457c-60.430324 12.379958-119.218242 23.300682-176.36887 32.762171l12.012591 41.49916c54.965869-12.012591 109.023042-23.301705 162.17152-33.854039C425.724543 685.173085 426.450067 671.701259 427.909301 652.04457z" p-id="12957"></path></svg>