<?xml version="1.0" standalone="no"?><!DOCTYPE svg PUBLIC "-//W3C//DTD SVG 1.1//EN" "http://www.w3.org/Graphics/SVG/1.1/DTD/svg11.dtd"><svg t="1533538416843" class="icon" style="" viewBox="0 0 1024 1024" version="1.1" xmlns="http://www.w3.org/2000/svg" p-id="12489" xmlns:xlink="http://www.w3.org/1999/xlink" width="200" height="200"><defs><style type="text/css"></style></defs><path d="M829.44 1024 348.16 1024c-16.95744 0-30.72-13.76256-30.72-30.72S331.20256 962.56 348.16 962.56l481.28 0c73.40032 0 133.12-59.71968 133.12-133.12l0-634.88C962.56 121.15968 902.84032 61.44 829.44 61.44l-471.04 0C284.99968 61.44 225.28 121.15968 225.28 194.56L225.28 839.68c0 16.95744-13.76256 30.72-30.72 30.72S163.84 856.63744 163.84 839.68L163.84 194.56C163.84 87.28576 251.12576 0 358.4 0l471.04 0C936.71424 0 1024 87.28576 1024 194.56l0 634.88C1024 936.71424 936.71424 1024 829.44 1024z" p-id="12490"></path><path d="M348.16 1024 194.56 1024C87.28576 1024 0 936.71424 0 829.44l0-430.08C0 290.26304 83.21024 204.8 189.44 204.8c16.95744 0 30.72 13.76256 30.72 30.72S206.39744 266.24 189.44 266.24C117.6576 266.24 61.44 324.7104 61.44 399.36l0 430.08C61.44 902.84032 121.15968 962.56 194.56 962.56L348.16 962.56c16.95744 0 30.72 13.76256 30.72 30.72S365.11744 1024 348.16 1024z" p-id="12491"></path><path d="M542.72 512l-143.36 0c-62.09536 0-112.64-50.54464-112.64-112.64l0-143.36C286.72 193.90464 337.26464 143.36 399.36 143.36l143.36 0c62.09536 0 112.64 50.54464 112.64 112.64l0 143.36C655.36 461.45536 604.81536 512 542.72 512zM399.36 204.8c-28.24192 0-51.2 22.95808-51.2 51.2l0 143.36c0 28.24192 22.95808 51.2 51.2 51.2l143.36 0c28.24192 0 51.2-22.95808 51.2-51.2l0-143.36c0-28.24192-22.95808-51.2-51.2-51.2L399.36 204.8z" p-id="12492"></path><path d="M839.68 245.76l-102.4 0c-16.95744 0-30.72-13.76256-30.72-30.72S720.32256 184.32 737.28 184.32l102.4 0c16.95744 0 30.72 13.76256 30.72 30.72S856.63744 245.76 839.68 245.76z" p-id="12493"></path><path d="M839.68 491.52l-102.4 0c-16.95744 0-30.72-13.76256-30.72-30.72S720.32256 430.08 737.28 430.08l102.4 0c16.95744 0 30.72 13.76256 30.72 30.72S856.63744 491.52 839.68 491.52z" p-id="12494"></path><path d="M839.68 368.64l-102.4 0c-16.95744 0-30.72-13.76256-30.72-30.72S720.32256 307.2 737.28 307.2l102.4 0c16.95744 0 30.72 13.76256 30.72 30.72S856.63744 368.64 839.68 368.64z" p-id="12495"></path><path d="M860.16 614.4 327.68 614.4c-16.95744 0-30.72-13.76256-30.72-30.72S310.72256 552.96 327.68 552.96l532.48 0c16.95744 0 30.72 13.76256 30.72 30.72S877.11744 614.4 860.16 614.4z" p-id="12496"></path><path d="M860.16 860.16 327.68 860.16c-16.95744 0-30.72-13.76256-30.72-30.72S310.72256 798.72 327.68 798.72l532.48 0c16.95744 0 30.72 13.76256 30.72 30.72S877.11744 860.16 860.16 860.16z" p-id="12497"></path><path d="M860.16 737.28 327.68 737.28c-16.95744 0-30.72-13.76256-30.72-30.72S310.72256 675.84 327.68 675.84l532.48 0c16.95744 0 30.72 13.76256 30.72 30.72S877.11744 737.28 860.16 737.28z" p-id="12498"></path></svg>