<?xml version="1.0" standalone="no"?><!DOCTYPE svg PUBLIC "-//W3C//DTD SVG 1.1//EN" "http://www.w3.org/Graphics/SVG/1.1/DTD/svg11.dtd"><svg t="1533538429234" class="icon" style="" viewBox="0 0 1024 1024" version="1.1" xmlns="http://www.w3.org/2000/svg" p-id="12838" xmlns:xlink="http://www.w3.org/1999/xlink" width="200" height="200"><defs><style type="text/css"></style></defs><path d="M832 128 736 128 736 64 649.813333 64C622.101333 25.898667 571.072 0 512 0 452.928 0 401.92 25.898667 374.186667 64L288 64 288 128 192 128C121.301333 128 64 185.301333 64 256L64 896C64 966.698667 121.301333 1024 192 1024L832 1024C902.698667 1024 960 966.698667 960 896L960 256C960 185.301333 902.698667 128 832 128L832 128ZM352 128 423.104 128C423.104 92.650667 462.890667 64 512 64 561.088 64 600.896 92.650667 600.896 128L672 128 672 256 352 256 352 128 352 128ZM896 896C896 931.349333 867.349333 960 832 960L192 960C156.650667 960 128 931.349333 128 896L128 256C128 220.650667 156.650667 192 192 192L288 192 288 320 736 320 736 192 832 192C867.349333 192 896 220.650667 896 256L896 896 896 896ZM736 768 288 768C270.336 768 256 782.336 256 800 256 817.664 270.336 832 288 832L736 832C753.685333 832 768 817.664 768 800 768 782.336 753.685333 768 736 768L736 768ZM736 448 288 448C270.336 448 256 462.336 256 480 256 497.664 270.336 512 288 512L736 512C753.685333 512 768 497.664 768 480 768 462.336 753.685333 448 736 448L736 448ZM736 608 288 608C270.336 608 256 622.336 256 640 256 657.664 270.336 672 288 672L736 672C753.685333 672 768 657.664 768 640 768 622.336 753.685333 608 736 608L736 608Z" p-id="12839"></path></svg>