<?xml version="1.0" standalone="no"?><!DOCTYPE svg PUBLIC "-//W3C//DTD SVG 1.1//EN" "http://www.w3.org/Graphics/SVG/1.1/DTD/svg11.dtd"><svg t="1533538406832" class="icon" style="" viewBox="0 0 1024 1024" version="1.1" xmlns="http://www.w3.org/2000/svg" p-id="12262" xmlns:xlink="http://www.w3.org/1999/xlink" width="200" height="200"><defs><style type="text/css"></style></defs><path d="M365.714286 109.714286h256v36.571428h-256z" p-id="12263"></path><path d="M841.142857 109.714286h-109.714286v36.571428h109.714286c21.942857 0 36.571429 14.628571 36.571429 36.571429v73.142857H109.714286V182.857143c0-21.942857 14.628571-36.571429 36.571428-36.571429h109.714286v-36.571428H146.285714c-40.228571 0-73.142857 32.914286-73.142857 73.142857v585.142857c0 40.228571 32.914286 73.142857 73.142857 73.142857h694.857143c40.228571 0 73.142857-32.914286 73.142857-73.142857V182.857143c0-40.228571-32.914286-73.142857-73.142857-73.142857z m36.571429 658.285714c0 21.942857-14.628571 36.571429-36.571429 36.571429H146.285714c-21.942857 0-36.571429-14.628571-36.571428-36.571429V292.571429h768v475.428571z" p-id="12264"></path><path d="M292.571429 36.571429h36.571428v182.857142h-36.571428zM658.285714 36.571429h36.571429v182.857142h-36.571429zM292.571429 731.428571h36.571428v-73.142857h146.285714v73.142857h36.571429v-73.142857h146.285714v73.142857h36.571429v-73.142857h73.142857v-36.571428h-73.142857V475.428571h73.142857V438.857143h-73.142857V365.714286h-36.571429v73.142857h-146.285714V365.714286h-36.571429v73.142857h-146.285714V365.714286h-36.571428v73.142857h-73.142858v36.571428h73.142858v146.285715h-73.142858v36.571428h73.142858v73.142857z m365.714285-256v146.285715h-146.285714V475.428571h146.285714z m-329.142857 0h146.285714v146.285715h-146.285714V475.428571z" p-id="12265"></path></svg>