<?xml version="1.0" standalone="no"?><!DOCTYPE svg PUBLIC "-//W3C//DTD SVG 1.1//EN" "http://www.w3.org/Graphics/SVG/1.1/DTD/svg11.dtd"><svg t="1533538291045" class="icon" style="" viewBox="0 0 1024 1024" version="1.1" xmlns="http://www.w3.org/2000/svg" p-id="9772" xmlns:xlink="http://www.w3.org/1999/xlink" width="200" height="200"><defs><style type="text/css"></style></defs><path d="M509.9 611.9l-130.1-75.1c-21.4-12.3-46.8-12.3-68.2 0-21.3 12.3-34.1 34.4-34.1 59.1v150.3c0 24.7 12.7 46.7 34.1 59.1 10.7 6.2 22.4 9.2 34.1 9.2 11.7 0 23.4-3.1 34.1-9.2l130.1-75.1c21.4-12.3 34.1-34.4 34.1-59.1 0-24.7-12.7-46.8-34.1-59.2z m-31 64.5l-130.1 75.1c-2.1 1.2-4.1 1.2-6.2 0-2.1-1.2-3.1-3-3.1-5.4V595.9c0-2.4 1-4.2 3.1-5.4 1-0.6 2.1-0.9 3.1-0.9s2.1 0.3 3.1 0.9l130.1 75.1c2.1 1.2 3.1 3 3.1 5.4 0 2.4-1 4.2-3.1 5.4z" p-id="9773"></path><path d="M944 478.9c-9.5-5.6-21.3-5.6-30.9-0.2l-144.8 81.9v-74c0-51.3-41.7-93-93-93H157.5c-51.3 0-93 41.7-93 93v368.9c0 51.3 41.7 93 93 93h517.8c51.3 0 93-41.7 93-93v-67.7l145.7 76c4.5 2.3 9.4 3.5 14.3 3.5 5.6 0 11.1-1.5 16.1-4.5 9.3-5.6 14.9-15.7 14.9-26.5V505.7c0-11-5.8-21.2-15.3-26.8zM706.3 855.5c0 17.1-13.9 31-31 31H157.5c-17.1 0-31-13.9-31-31v-369c0-17.1 13.9-31 31-31h517.8c17.1 0 31 13.9 31 31v369z m191-70.3l-129.1-67.3v-86.1l129.1-73v226.4zM258.8 350.1c49 0 88.9-39.9 88.9-88.9s-39.9-88.9-88.9-88.9-88.9 39.9-88.9 88.9 39.9 88.9 88.9 88.9z m0-115.7c14.8 0 26.9 12 26.9 26.9 0 14.8-12.1 26.9-26.9 26.9-14.8 0-26.9-12.1-26.9-26.9 0-14.9 12-26.9 26.9-26.9zM519.2 312.9c65 0 117.8-52.8 117.8-117.8S584.1 77.3 519.2 77.3s-117.8 52.8-117.8 117.8 52.8 117.8 117.8 117.8z m0-173.6c30.8 0 55.8 25 55.8 55.8s-25 55.8-55.8 55.8c-30.8 0-55.8-25-55.8-55.8s25-55.8 55.8-55.8z" p-id="9774"></path></svg>