<?xml version="1.0" standalone="no"?><!DOCTYPE svg PUBLIC "-//W3C//DTD SVG 1.1//EN" "http://www.w3.org/Graphics/SVG/1.1/DTD/svg11.dtd"><svg t="1533538358994" class="icon" style="" viewBox="0 0 1118 1024" version="1.1" xmlns="http://www.w3.org/2000/svg" p-id="11015" xmlns:xlink="http://www.w3.org/1999/xlink" width="218.359375" height="200"><defs><style type="text/css"></style></defs><path d="M337.454545 437.108364a74.705455 74.705455 0 1 1-74.938181-74.938182 74.891636 74.891636 0 0 1 74.938181 74.938182z m296.494546 0a74.705455 74.705455 0 1 1-74.472727-74.938182 74.798545 74.798545 0 0 1 74.472727 74.938182z m296.96 0a74.705455 74.705455 0 1 1-74.938182-74.938182A74.891636 74.891636 0 0 1 930.909091 437.108364zM932.305455 46.545455a139.636364 139.636364 0 0 1 139.170909 139.636363v497.477818a139.636364 139.636364 0 0 1-139.170909 139.636364h-238.312728l-13.963636 13.591273-120.552727 121.297454-121.018182-121.297454-13.963637-13.591273H186.181818a139.636364 139.636364 0 0 1-139.170909-139.636364V186.181818A139.636364 139.636364 0 0 1 186.181818 46.545455h746.123637m0-46.545455H186.181818A186.647273 186.647273 0 0 0 0.465455 186.181818v497.477818a186.647273 186.647273 0 0 0 185.716363 186.181819h219.229091L559.476364 1024l153.6-154.158545h219.229091a186.647273 186.647273 0 0 0 185.716363-186.181819V186.181818a186.647273 186.647273 0 0 0-185.716363-186.181818z" p-id="11016"></path></svg>