<?xml version="1.0" standalone="no"?><!DOCTYPE svg PUBLIC "-//W3C//DTD SVG 1.1//EN" "http://www.w3.org/Graphics/SVG/1.1/DTD/svg11.dtd"><svg t="1534736268069" class="icon" style="" viewBox="0 0 1024 1024" version="1.1" xmlns="http://www.w3.org/2000/svg" p-id="6998" xmlns:xlink="http://www.w3.org/1999/xlink" width="200" height="200"><defs><style type="text/css"></style></defs><path d="M900 385.2v-99.3c0-103.1-83.9-187-187-187H441.1L433 82.2c-4.7-9.8-14.6-16-25.4-16H288.7c-112.2 0-203.5 91.3-203.5 203.5v484.6c0 112.2 91.3 203.5 203.5 203.5h446.7c112.2 0 203.5-91.3 203.5-203.5V435.2c-0.1-24.1-16.6-44.3-38.9-50zM713 155.4c72 0 130.5 58.5 130.5 130.5v97.6h-265L468.4 155.4H713z m169.3 598.9c0 81.1-65.9 147-147 147H288.7c-81.1 0-147-65.9-147-147V269.7c0-81.1 65.9-147 147-147h101.2L535.3 424c4.7 9.8 14.6 16 25.4 16h321.6v314.3z" fill="#494949" p-id="6999"></path></svg>