<?xml version="1.0" standalone="no"?><!DOCTYPE svg PUBLIC "-//W3C//DTD SVG 1.1//EN" "http://www.w3.org/Graphics/SVG/1.1/DTD/svg11.dtd"><svg t="1533538362875" class="icon" style="" viewBox="0 0 1024 1024" version="1.1" xmlns="http://www.w3.org/2000/svg" p-id="11127" xmlns:xlink="http://www.w3.org/1999/xlink" width="200" height="200"><defs><style type="text/css"></style></defs><path d="M311.168448 76.844595c-0.657193-0.704135-0.140827 0.281654 0 0z m199.411021-76.844595v16.476758c0.187769-0.422481 0-5.116714 0-16.476758z m0 0" p-id="11128"></path><path d="M739.939696 873.54983c-51.448794-125.054369-156.881269-214.010085-281.653984-241.940772 65.625378-46.801504 112.849363-103.742551 123.974695-217.53076a267.571284 267.571284 0 0 0-55.110296-20.372971c-153.923902-32.390208-291.464931-8.074081-330.380123 0.281654-15.209315 3.567617-40.08875 9.951774-55.626661 15.11543 10.46814 119.515174 60.649491 180.962685 130.311909 226.872284-116.135326 32.014669-214.432566 118.247731-263.628128 237.622078l-1.220501 3.614559c-4.741175 19.621894-12.909141 69.052168 13.566334 105.244705 10.421197 14.364353 30.700284 31.920785 67.643898 34.502613 34.03319 2.253232 129.842486 4.694233 286.066563 6.994408h1.361327c154.862749-2.300174 250.625103-4.741175 284.79912-6.994408 36.896672-2.628771 57.081874-20.185202 67.550014-34.502613 26.475474-36.192537 18.260567-85.622811 13.519391-105.244705l-1.173558-3.661502z m8.027138-499.560282l32.390209 14.552122c11.313102-67.503071 7.088292-111.58192 6.712753-114.82094-5.257541-101.9118-103.695608-138.432933-154.909691-143.549647L577.331463 128.481159s47.505639 122.941964 56.049142 223.77409c13.566334 0.844962 78.487577 5.680022 114.586229 21.734299z m0 0" p-id="11129"></path><path d="M934.140118 866.132942c-40.511231-127.166774-129.842486-175.188778-188.942881-206.921793-9.388466-5.069772-18.166682-9.810947-25.959109-14.458238-10.702851-6.24333-21.640414-11.406986-31.310534-16.054277-5.398368-2.487944-12.251948-5.63308-16.993124-8.355735 58.302375-86.702485 88.01687-132.752911 102.897589-198.894655l-32.01467-13.519391c-21.828184-10.984505-76.797653-19.434125-107.169341-21.499587 0 3.42679-0.187769 6.85358-0.375538 10.233428-6.478042 109.093976-37.694691 120.64179-76.234345 186.971303-7.088292 12.205006-15.209315 22.76703-15.209315 30.559457 0 4.22481 19.52801 16.5237 28.869533 21.593472 40.135693 21.734299 106.934629 61.259741 164.063445 140.263684 79.238654 109.5634 45.158522 198.613001 45.158523 198.613001s86.749427-0.751077 109.891995-2.394059c14.50518-0.985789 26.052993-6.665811 34.220959-16.805355 13.378564-16.758412 16.429816-44.360502 9.106813-89.331255zM185.785483 343.946456c52.669295-11.266159 192.416613-33.939305 352.114422-0.281654l0.422481 0.093885c1.220501 0.234712 21.734299 4.975887 46.33208 15.115431-0.516366-85.81058-21.922068-167.208582-60.414779-229.360228l-4.600349-7.46383-8.308792-3.00431a439.661869 439.661869 0 0 0-298.975704 0l-8.167965 3.051252-4.647291 7.416888C162.032664 190.069497 140.720846 268.791785 139.171749 352.208307l-0.046943 3.896213c20.560741-6.008618 42.576694-11.219217 46.191254-12.064179l0.469423-0.093885z m135.569451-129.373063h27.555148V191.665536a18.401394 18.401394 0 0 1 36.755845 0v22.9548h21.405703a18.401394 18.401394 0 1 1 0 36.755844H385.618984v15.256258a18.025855 18.025855 0 0 1-7.604657 14.458238 14.927661 14.927661 0 0 1-12.205006 6.431099 15.021546 15.021546 0 0 1-14.739892-12.674429 18.11974 18.11974 0 0 1-2.159347-8.214908v-15.3032h-27.508206a18.401394 18.401394 0 0 1-0.046942-36.755845z m0 0" p-id="11130"></path></svg>