<?xml version="1.0" standalone="no"?><!DOCTYPE svg PUBLIC "-//W3C//DTD SVG 1.1//EN" "http://www.w3.org/Graphics/SVG/1.1/DTD/svg11.dtd"><svg t="1533538330190" class="icon" style="" viewBox="0 0 1024 1024" version="1.1" xmlns="http://www.w3.org/2000/svg" p-id="10340" xmlns:xlink="http://www.w3.org/1999/xlink" width="200" height="200"><defs><style type="text/css"></style></defs><path d="M473.6 162.304h-19.968v-21.504c0-9.216-7.168-17.408-16.896-17.408-9.216 0-16.896 7.68-16.896 17.408v21.504h-25.6c-9.216 0-16.896 7.68-16.896 17.408 0 9.216 7.168 17.408 16.896 17.408h25.6v14.336c0 3.072 0.512 5.12 2.048 7.68 1.024 7.168 6.656 11.776 13.824 11.776 4.608 0 8.704-2.56 11.264-5.632 4.096-3.072 6.656-8.192 6.656-13.312v-14.336h19.968c9.216 0 16.896-7.68 16.896-17.408s-8.192-17.92-16.896-17.92zM768 819.712c-46.08-112.64-140.8-196.096-253.952-221.184l-7.168-1.536 5.632-4.096c70.656-50.688 113.664-158.208 113.664-280.576 0-79.872-19.456-155.648-54.784-213.504l-3.584-5.632-6.144-2.56c-42.496-16.384-88.064-24.064-135.168-24.064s-92.16 8.192-135.168 24.064l-6.144 2.56-3.584 5.632C246.272 156.672 226.816 232.448 226.816 312.32c0 124.416 46.592 236.032 119.296 283.648l6.144 4.096-6.656 1.536c-107.52 30.208-193.536 109.056-238.08 218.112l-1.024 3.072c-4.096 17.408-11.264 61.952 11.776 94.208 9.216 12.8 26.624 28.16 58.88 30.72 30.72 2.56 118.272 4.608 260.096 6.144h1.024v3.584-3.584c141.312-2.56 228.352-4.096 259.072-6.144 32.256-2.56 50.176-17.92 58.88-30.72 23.04-32.256 15.872-76.8 11.776-94.72v-2.56zM429.056 277.504c-68.096 0-122.368 8.192-156.16 14.848l-4.096 0.512v-4.096c3.072-63.488 17.408-120.832 43.008-165.888l0.512-1.024 1.024-0.512c35.84-12.8 74.24-18.944 113.664-18.944s77.312 6.144 113.664 18.944l1.024 0.512 1.024 1.024c25.6 45.056 40.448 102.4 43.008 165.376v4.096l-4.096-0.512c-48.64-9.216-100.352-14.336-152.576-14.336zM918.016 808.96c-36.864-117.248-118.272-161.28-171.52-190.976-8.704-4.608-16.384-9.216-23.04-13.312-9.728-5.632-19.968-10.24-28.16-14.848-5.12-2.56-11.264-5.12-15.36-7.68 121.344-183.808 105.984-346.624 105.472-353.28-4.608-94.208-94.208-128-140.8-132.608l-15.36-1.536-3.072 31.232 15.36 1.536c4.608 0.512 108.544 12.288 113.152 103.424 0 0.512 3.072 34.816-4.608 88.064-35.328-14.336-88.576-17.92-95.232-17.92l-1.536 31.232c26.112 1.024 70.656 7.68 91.648 17.92-12.288 61.44-39.424 139.776-95.232 222.208l-1.536 3.584c-8.704 22.016 14.848 32.768 35.328 41.984 8.192 4.096 16.896 8.192 26.112 13.312 7.168 4.608 15.872 9.216 24.576 13.824 52.224 28.16 123.904 67.584 156.16 170.496 6.144 39.424 0 52.224-3.072 55.296-1.024 1.536-3.584 3.584-9.216 4.096-20.48 1.024-47.616 2.56-47.616 2.56l0.512 31.232s27.648-0.512 49.664-2.56c13.312-1.024 24.064-6.144 31.232-15.36 10.24-14.848 13.312-39.936 6.144-81.92z" p-id="10341"></path></svg>