<?xml version="1.0" standalone="no"?><!DOCTYPE svg PUBLIC "-//W3C//DTD SVG 1.1//EN" "http://www.w3.org/Graphics/SVG/1.1/DTD/svg11.dtd"><svg t="1533538392841" class="icon" style="" viewBox="0 0 1024 1024" version="1.1" xmlns="http://www.w3.org/2000/svg" p-id="11924" xmlns:xlink="http://www.w3.org/1999/xlink" width="200" height="200"><defs><style type="text/css"></style></defs><path d="M888.92928 568.30976V201.83552c0-87.99232-71.58784-159.57504-159.57504-159.57504H205.0816c-87.99232 0-159.57504 71.58784-159.57504 159.57504v609.91488c0 87.99232 71.58784 159.57504 159.57504 159.57504h442.8544a234.99264 234.99264 0 0 0 100.1216 22.28736c130.3296 0 235.97568-105.64608 235.97568-235.97568 0-77.52704-37.38624-146.31424-95.104-189.32736zM106.87488 811.7504V201.83552c0-54.01088 44.1856-98.19648 98.19648-98.19648H729.344c54.01088 0 98.19648 44.1856 98.19648 98.19648v333.58336a235.40224 235.40224 0 0 0-79.50336-13.76256c-130.3296 0-235.97568 105.64608-235.97568 235.97568 0 58.07616 21.0176 111.2064 55.80288 152.32H205.0816c-54.016-0.00512-98.20672-44.19072-98.20672-98.2016z m641.18272 120.4736c-96.27648 0-174.60224-78.32576-174.60224-174.60224s78.32576-174.60224 174.60224-174.60224 174.60224 78.32576 174.60224 174.60224c-0.01024 96.2816-78.33088 174.60224-174.60224 174.60224z m133.71392-120.09984a27.904 27.904 0 0 1-27.42784 23.08096c-1.59744 0-3.21024-0.14848-4.8384-0.42496l-99.99872-17.49504a27.904 27.904 0 0 1-20.66944-16.13312l-59.99104-134.98368a27.87328 27.87328 0 1 1 50.93888-22.64576l53.95456 121.41568 85.36064 14.93504a27.86816 27.86816 0 0 1 22.67136 32.25088zM196.49536 286.65856a27.8784 27.8784 0 0 1 27.87328-27.87328h476.928a27.8784 27.8784 0 0 1 0 55.74656h-476.928a27.87328 27.87328 0 0 1-27.87328-27.87328z m0 220.6976a27.8784 27.8784 0 0 1 27.87328-27.87328h307.21024a27.8784 27.8784 0 0 1 0 55.74656H224.36864a27.87328 27.87328 0 0 1-27.87328-27.87328z m243.23072 213.9136a27.8784 27.8784 0 0 1-27.87328 27.87328H224.36864a27.8784 27.8784 0 0 1 0-55.74656H411.8528a27.8784 27.8784 0 0 1 27.87328 27.87328z" p-id="11925"></path></svg>