<?xml version="1.0" standalone="no"?><!DOCTYPE svg PUBLIC "-//W3C//DTD SVG 1.1//EN" "http://www.w3.org/Graphics/SVG/1.1/DTD/svg11.dtd"><svg t="1533538371655" class="icon" style="" viewBox="0 0 1024 1024" version="1.1" xmlns="http://www.w3.org/2000/svg" p-id="11353" xmlns:xlink="http://www.w3.org/1999/xlink" width="200" height="200"><defs><style type="text/css"></style></defs><path d="M954.656 674.096a43.12 43.12 0 0 0-34.72-28.576l-102.48-15.232-44.528-92.432a43.792 43.792 0 0 0-39.36-24.464 43.84 43.84 0 0 0-39.36 24.464l-44.512 92.432-102.496 15.216a43.2 43.2 0 0 0-34.72 28.608 41.952 41.952 0 0 0 10.224 43.632l75.36 75.232-17.472 104.32a42.624 42.624 0 0 0 17.984 42.016 44.384 44.384 0 0 0 25.008 7.616c7.184 0 14.384-1.696 20.88-5.152l89.12-47.968 89.184 47.984a44.16 44.16 0 0 0 20.88 5.232c8.944 0 17.568-2.656 24.976-7.712a42.624 42.624 0 0 0 17.968-41.968l-17.472-104.336 75.376-75.216a42.128 42.128 0 0 0 10.16-43.696z m-130.768 73.568a63.968 63.968 0 0 0-17.92 55.856l10.4 62.128-52.48-28.24a64.096 64.096 0 0 0-60.672 0l-52.464 28.24 10.4-62.112a64 64 0 0 0-17.904-55.872l-45.12-45.024 60.96-9.04a64.032 64.032 0 0 0 48.256-35.552l26.224-54.432 26.24 54.448a64 64 0 0 0 48.256 35.52l60.96 9.056-45.136 45.024z" p-id="11354"></path><path d="M446.16 896h-288c-8.688 0-17.648-4.016-22.816-10.224-3.84-4.608-5.072-9.728-3.888-16.144C159.376 718.032 291.728 608 446.16 608c2.896 0 5.664-0.512 8.336-1.232C593.088 594.4 702.16 477.776 702.16 336c0-149.984-122.016-272-272-272s-272 122.016-272 272c0 102.224 56.736 191.36 140.32 237.824-116.88 48.72-205.872 153.424-229.968 284.224-4.624 25.056 1.648 49.472 17.648 68.688C103.504 947.568 130.416 960 158.16 960h288a32 32 0 0 0 0-64z m-224-560c0-114.688 93.312-208 208-208s208 93.312 208 208-93.312 208-208 208c-114.704 0-208-93.312-208-208z" p-id="11355"></path></svg>